<?xml version="1.0" encoding="utf-8"?>
<!-- Generator: Adobe Illustrator 24.1.1, SVG Export Plug-In . SVG Version: 6.00 Build 0)  -->
<svg version="1.1" id="_x31_0" xmlns="http://www.w3.org/2000/svg" xmlns:xlink="http://www.w3.org/1999/xlink" x="0px" y="0px"
	 viewBox="0 0 512 512" style="enable-background:new 0 0 512 512;" xml:space="preserve">
<style type="text/css">
	.st0{fill:#374149;}
</style>
<g>
	<path class="st0" d="M1.782,162.474l0.054,0.011c-0.719,3.442-0.317,7.195,1.121,10.793c2.957,6.797,9.519,11.203,16.957,11.203
		c2.242,0,4.485-0.406,6.641-1.282l42.882-14.64l29.882,2.691l25.781,2.465l-72.226,32.281
		c-10.156,4.398-14.961,16.484-10.641,26.804c3.043,6.954,9.446,11.68,16.961,12.477c0.641,0,1.359,0.078,2,0.078
		c2.718,0,5.359-0.555,7.922-1.602l74.077-30.797l26.082,2.398c8.082,9.359,18.159,17.203,29.999,23.125
		c8,4,16.637,7.117,25.519,9.274c0.48,0.164,52.48,11.523,80.241-9.274c5.039-0.406,20.797,3.039,29.117,6.961
		c0.481,0.234,1.203,0.554,1.922,0.953l3.36,1.922c1.038,0.484,2.078,1.203,3.199,2.078l2.48,1.844l1.039,0.641l3.922,3.515
		c0.558,0.406,1.199,0.961,1.922,1.922l7.758,9.039l4.961,9.039c1.679,3.766,3.758,8.406,5.038,14.726
		c0.477,1.515,0.719,2.953,1.039,4.234c0.481,3.679,0.641,7.281,0.801,10.718l0.238,3.203l-0.398,4.64
		c-0.562,4.562-1.039,9.68-3.039,15.438c-3.359,12-10.718,23.843-20.961,34.242l-6.16,5.438c-0.558,0.484-1.762,1.523-4.082,2.882
		l-1.438,1.039c-1.602,1.203-3.68,2.562-6.801,4.164c-5.84,3.438-12,5.359-17.441,7.117l-2.961,0.883
		c-15.359,3.679-31.438,3.515-46.554-0.641c-2.402-0.726-4.805-1.359-7.523-2.406l-1.359-0.398
		c-2.883-0.797-17.68-5.515-30.48-18.96c-0.801-0.798-1.442-1.516-2.238-2.234l-7.68-7.524l-1.679-1.359
		c-1.359-1.523-2.961-3.203-5.039-5.203l-2.722,2.242l-2.722,2.321l-12.77,10.398l-0.871,0.695c0.004,0,0.004,0.004,0.008,0.008
		l-0.125,0.102c1.117,1.195,2.32,2.398,3.359,3.438l11.758,11.602l1.683,1.515l1.278,1.203
		c14.27,15.168,30.328,21.965,38.015,24.602c0.492,0.179,1.039,0.386,1.492,0.542l-2.469,4.137l-20.058,34.738l-0.5,0.86
		l-1.039-0.637c-16.238-10-30.402-22.562-42.315-37.281c-2.485-2.961-4.723-6-6.883-9.203l-9.289-13.266l-0.687-1.007l-0.012,0.007
		l-0.09-0.133l-13.762,11.203l-5.519,4.554l8.961,12.805c2.64,3.836,5.359,7.438,7.918,10.718
		c14.082,17.281,30.961,31.922,50.082,43.601l2.64,1.516c3.758,2.242,7.598,4.242,11.438,6.164
		c14.64,7.117,30.242,12.476,46.562,15.758l12.398,2.156c3.84,0.641,7.602,0.882,10.641,1.203l1.835,0.242
		c3.126,0.242,6.805,0.242,10.485,0.242l6.078,0.078l8.398-0.078c32-2,63.038-11.281,89.999-27.046l2.082-1.274
		c1.121-0.64,2.32-1.366,3.442-2.086c30.078-19.038,54.558-44.874,70.796-74.874l0.32-0.562
		c7.679-13.282,13.922-28.961,19.762-49.601c3.762-16.398,5.839-30.961,6.238-44.398c0.164-2.797,0.164-5.601,0.164-8.242v-0.719
		c0.157-16.242-2.086-33.757-6.804-53.601l-0.238-0.64c-1.278-4.321-2.641-8.719-4-13.118l-2.082-6.242l-3.515-8.398
		c-1.68-4.078-3.203-7.68-4.882-11.281c-1.602-3.196-3.282-6.398-5.118-9.758l-4.882-8.64c-0.719-1.282-1.52-2.562-2.641-4.242
		l-0.797-1.274c-2.484-3.601-5.039-7.366-8.164-11.843c-1.68-2.156-3.438-4.32-5.359-6.641l-8-9.515
		c-0.477-0.641-1.68-1.922-2.797-3.047l-1.844-1.914c-3.598-3.602-6.874-6.883-10.32-10.242c-1.836-1.679-4-3.438-6.32-5.437
		l-4.554-3.766c-3.203-2.797-6.961-5.594-11.602-8.719l-11.68-7.835c-24.882-15.203-49.601-26.805-74.241-34.484
		c-0.558-1.118-1.117-2.242-1.84-3.359c-5.121-8.641-14.316-14.562-24.636-15.516L34.636,18.64
		c-0.878-0.078-1.762-0.156-2.558-0.156c-10.48,0-19.523,6.398-23.202,16.156c-3.68,9.844-1.039,20.64,6.882,27.523l43.835,38.449
		l34.754,30.651l-25.871-1.906h-0.32l-1.281-0.078c-2.559,0-4.962,0.562-7.278,1.602l-46.48,18.078l-0.32,0.078l-0.321,0.086
		c-5.359,2.398-9.038,7.118-10.398,12.398l-1.062,0.406l-1.004,0.234l0.273,0.047L0,162.318L1.782,162.474z M18.235,162.162
		l46.804-18.164l0.156-0.156l1.68-0.398l0.402,0.078h0.238l44.8,3.282l8.02,7.035l6.171,5.586l-58.792-5.262l0.688-0.226
		l0.777-0.094l-0.523,0.007l0.5-0.164l-1.246,0.176l-1.214,0.02l0.543,0.078l-0.566,0.078l0.961,0.137l-46.034,15.746h-0.082
		l-1.602,0.398c-1.598,0-3.277-1.039-3.914-2.641C15.117,165.521,16.078,163.037,18.235,162.162z M263.191,202.958
		c-0.078,1.758-0.961,3.203-2.238,4.321c-1.199,1.038-2.64,1.523-4.082,1.523h-0.641l-64.475-5.766l-15.602-1.438l-12.078-1.039
		l-5.36-0.484l-5.038-0.398l-12.641-1.195l-77.358,32.155c-0.804,0.398-1.601,0.485-2.484,0.485h-0.558
		c-2.321-0.242-4.402-1.766-5.278-3.844c-1.359-3.203,0.078-6.961,3.278-8.398l78.558-35.038c0.961-0.398,1.922-0.641,2.804-0.641
		h0.477l2.32,0.157l8.719,0.64l0.32,0.485c-0.078-0.164-0.078-0.406-0.078-0.485l8.477,0.641l19.125,1.282l78.319,5.602
		c3.598,0.32,6.156,3.359,5.918,6.874L263.191,202.958z M206.395,87.358l-0.242,3.039l-0.878,8.805
		c-1.121,11.438-11.199,19.758-22.558,18.554l-2.242-0.156c-0.562-0.078-1.117-0.157-1.602-0.242
		c-9.597-1.68-16.796-10-17.117-19.679c0-0.875,0-1.758,0.078-2.641l1.203-11.914c1.117-11.367,11.195-19.766,22.558-18.562
		l2.316,0.156c3.043,0.32,5.844,1.282,8.242,2.726C203.036,71.358,207.275,78.96,206.395,87.358z M430.228,147.357l36.804,40.64
		l0.156,0.398c0.641,0.883,1.203,1.844,1.762,2.562l1.679,2.883l0.16,0.32c0.078,2.719-1.839,5.438-4.882,6l-42.398,6.961
		c-3.68,0.555-7.039-2.406-6.719-6.164l3.438-50.077C420.549,145.755,426.791,143.521,430.228,147.357z M320.398,215.337
		c1.117-2.793,1.914-5.824,2.234-8.942l11.199-115.678c19.679,6.961,39.441,16.484,59.28,28.726l2.961,2
		c2.797,1.836,5.359,3.594,7.922,5.359l0.719,0.398l-9.68,16.797l-16.484,28.562l-27.038,46.796l-3.117,5.446l-0.801-0.406
		c-1.282-0.719-2.481-1.274-3.199-1.516c-0.227-0.078-10.332-4.445-22.086-7.086C321.671,215.642,321.043,215.481,320.398,215.337z
		 M487.11,293.125c-0.562,11.679-2.32,24.476-5.601,38.792c-5.039,18-10.558,31.758-17.118,43.281l-0.484,0.875
		c-14.316,26.406-35.999,49.202-62.476,65.921c-1.602,1.125-3.121,2-4.8,2.961l-31.278-54.078l-3.762-6.484l0.879-0.641l2.718-2.875
		c13.203-13.281,22.484-28.718,26.882-44.163c2.879-8.477,3.68-16.234,4.078-21.437l0.562-5.203l-0.242-5.438
		c-0.242-3.195-0.398-7.117-1.038-11.515h87.557L487.11,293.125z"/>
	<path class="st0" d="M131.756,395.916l72.319-58.242l-47.991-77.506l-21.711-35.206l-0.042,0.07l-0.098-0.153l-31.835,52.96
		L57.05,290.816l-21.339,6.031l0.062,0.062l-0.176,0.047L131.756,395.916z M128.955,289.355l6-3.758l28.48,44.96l-5.398,4.031
		l-0.289,0.203l-28.57-45.082L128.955,289.355z M139.263,348.647l-5.667,4.308l-37.519-41.034l-0.078-0.082l5.195-4.719l35.07,38.23
		L139.263,348.647z"/>
	<path class="st0" d="M185.513,77.444c-0.55-0.066-1.078-0.035-1.594,0c-0.118-0.027-0.262-0.008-0.352-0.094
		c0.028,0.023,0.035,0.062,0.063,0.094c-0.063,0.004-0.137-0.008-0.196,0c1.199,1.195,1.922,2.875,1.922,4.718
		c0,3.594-2.961,6.555-6.641,6.555c-1.965,0-3.683-0.879-4.91-2.238c-0.219-0.293-0.458-0.574-0.622-0.914
		c-0.008,0.039-0.008,0.078-0.019,0.118c-0.039-0.058-0.094-0.102-0.129-0.16c-0.242,0.797-0.402,1.602-0.485,2.476l-0.32,4.078
		c-0.637,6.406,4.082,12.242,10.562,12.882c1.922,0.242,3.758-0.078,5.519-0.718c2.722-1.118,5.043-3.282,6.238-5.922l0.082-0.078
		c0.559-1.203,0.879-2.485,1.043-3.922l0.477-4C196.794,83.842,191.997,78.077,185.513,77.444z"/>
</g>
</svg>
