<?xml version="1.0" encoding="utf-8"?>
<!-- Generator: Adobe Illustrator 24.1.1, SVG Export Plug-In . SVG Version: 6.00 Build 0)  -->
<svg version="1.1" id="_x31_0" xmlns="http://www.w3.org/2000/svg" xmlns:xlink="http://www.w3.org/1999/xlink" x="0px" y="0px"
	 viewBox="0 0 512 512" style="enable-background:new 0 0 512 512;" xml:space="preserve">
<style type="text/css">
	.st0{fill:#374149;}
</style>
<g>
	<path class="st0" d="M467.394,48.602H44.606C20.012,48.602,0,68.61,0,93.207v325.511c0,24.634,20.012,44.68,44.606,44.68h422.789
		c24.594,0,44.606-20.046,44.606-44.68V93.207C512,68.61,491.988,48.602,467.394,48.602z M37.703,93.207
		c0-3.766,3.094-6.828,6.902-6.828h422.789c3.766,0,6.824,3.062,6.824,6.828v325.511c0,3.844-3.058,6.977-6.824,6.977H44.606
		c-3.809,0-6.902-3.133-6.902-6.977V93.207z"/>
	<path class="st0" d="M180.058,262.629c-0.77,0.633-1.473,1.336-2.246,1.969c-1.825,1.543-7.93,6.946-7.93,6.946
		c-24.497,21.34-49.2,43.656-73.485,66.328l-2.316,2.246l17.125,20.074c0,0,9.125-7.23,12.144-9.617
		c22.528-17.758,45.13-36.215,67.305-54.817c4.562-3.718,9.055-7.507,13.547-11.367c2.949-2.386,5.828-4.914,8.774-7.371
		l28.988,25.406c0.629,0.562,1.614,1.336,2.313,1.754c0.07,0.07,0.14,0.07,0.21,0.14c3.301,2.176,7.371,3.367,11.512,3.367
		c4.141,0,8.282-1.258,11.652-3.367c0.84-0.558,1.754-1.262,2.387-1.754l0.629-0.558l29.617-25.27
		c3.09,2.527,6.18,5.125,9.336,7.652c4.211,3.434,8.422,6.946,12.703,10.317c23.863,19.438,47.657,38.25,70.746,55.867
		c2.106,1.683,9.546,7.367,9.546,7.367l13.406-15.649l-2.246-2.175c-24.004-23.094-48.43-45.762-72.504-67.45
		c-2.383-2.106-4.699-4.282-7.086-6.386l-1.824-1.618l-7.996-7.168l-0.836-0.77l2.164-1.886c5.543-4.774,11.02-9.543,16.422-14.39
		c21.336-18.598,42.742-37.825,63.798-57.34c3.23-3.016,6.461-5.961,9.687-8.981l2.316-2.176l-8.702-10.179l-8.422-9.894
		c0,0-8.984,7.019-12.144,9.542c-22.176,17.481-44.848,35.867-67.305,54.746c-8.211,6.809-16.356,13.754-24.496,20.637
		l-19.09,16.211l-21.898,18.882l-8.914-7.442l-19.02-15.863c-1.262-1.05-14.035-11.508-14.035-11.508
		c-8.074-6.667-16.074-13.266-24.214-19.863c-23.934-19.441-47.726-38.254-70.676-55.801c-2.386-1.82-9.617-7.367-9.617-7.367
		l-13.406,15.653l2.246,2.176c3.161,3.086,6.387,6.105,9.618,9.191c20.633,19.722,41.828,39.234,62.886,58.254
		c5.766,5.29,11.598,10.438,17.367,15.586l0.375,0.359C185.668,257.726,182.793,260.11,180.058,262.629z"/>
</g>
</svg>
