<?xml version="1.0" encoding="utf-8"?>
<!-- Generator: Adobe Illustrator 19.1.1, SVG Export Plug-In . SVG Version: 6.00 Build 0)  -->
<svg version="1.1" id="_x31_0" xmlns="http://www.w3.org/2000/svg" xmlns:xlink="http://www.w3.org/1999/xlink" x="0px" y="0px"
	 viewBox="0 0 512 512" style="enable-background:new 0 0 512 512;" xml:space="preserve">
<style type="text/css">
	.st0{fill:#374149;}
</style>
<g>
	<path class="st0" d="M485.269,6.997c-3.733,0-7.342,0.811-10.75,2.434L329.908,76.889L207.323,19.734L182.093,7.93l-25.19,11.804
		L0,92.912v332.342c0,7.788,2.88,15.049,8.113,20.404c5.03,5.192,11.642,8.072,18.619,8.072c3.691,0,7.342-0.811,10.709-2.434
		L144.49,401.32l-0.081-0.04l-0.122-0.122c-14.967-12.615-27.178-27.827-36.223-44.823l-54.68,25.515V130.028l109.644-51.191v75.57
		c11.805-7.301,24.622-12.981,38.13-16.794V78.836l109.686,51.191v17.808c14.116,7.018,26.934,16.145,38.13,27.056v-44.864
		l109.605-51.191v251.822l-82.791,38.657l1.947,3.002l3.528,5.477l6.126,9.493l19.268,29.651L512,367.774V35.432
		C512,19.775,500.034,6.997,485.269,6.997z"/>
	<path class="st0" d="M26.732,453.569c-6.919,0-13.491-2.85-18.505-8.023c-5.202-5.325-8.067-12.531-8.067-20.294V92.911
		l156.81-73.033l25.19-11.803l25.095,11.803l122.585,57.156L474.586,9.575c3.37-1.606,6.964-2.418,10.682-2.418
		c14.651,0,26.571,12.683,26.571,28.275v332.342l-105.253,49.018l-30.666-47.564l82.725-38.424l0.092-251.967l-109.833,51.047
		l-0.092,45.008c-10.997-11.098-23.839-20.211-37.898-27.199l0.089-17.664L201.226,78.692l-0.228,58.922
		c-13.297,3.633-26.139,9.287-38.055,16.656l0.245-75.434L53.315,129.884l-0.092,251.967l54.908-25.371
		c8.954,17.146,21.154,32.244,36.053,44.802l-106.811,49.87C34.043,452.756,30.464,453.569,26.732,453.569z"/>
	<path class="st0" d="M201.158,322.748v-76.544c-6.733,7.302-11.602,16.347-13.75,26.489
		C183.43,291.27,189.191,309.727,201.158,322.748z"/>
	<path class="st0" d="M200.999,322.336c-12.19-13.457-17.211-31.97-13.436-49.611c2.078-9.806,6.82-18.939,13.712-26.412
		L200.999,322.336z"/>
	<path class="st0" d="M388.077,425.578l-17.686-27.259l-6.166-9.492l-3.53-5.477l-3.001,5.031
		c-16.673,18.415-37.928,32.734-61.496,41.415l-1.622,0.609c-1.298,0.487-2.556,0.973-3.894,1.379l-3.367,1.095l-1.745,0.567
		l0.65,0.934l2.271,3.489l30.221,46.608c6.57,10.1,16.672,17.037,28.476,19.551c3.082,0.65,6.246,0.974,9.411,0.974
		c8.721,0,17.198-2.515,24.501-7.261c10.141-6.572,17.077-16.673,19.591-28.477c2.514-11.764,0.285-23.852-6.287-33.952
		L388.077,425.578z"/>
	<path class="st0" d="M356.599,504.843c-3.168,0-6.323-0.326-9.378-0.971c-11.753-2.503-21.83-9.422-28.375-19.482l-32.491-50.098
		l-0.653-0.935l1.662-0.324l3.367-1.096c1.177-0.358,2.294-0.778,3.433-1.205l2.09-0.783c23.579-8.686,44.866-23.024,61.558-41.459
		l3.019-5.057l3.258,5.481l30.179,46.488c6.551,10.068,8.776,22.082,6.265,33.832c-2.505,11.762-9.438,21.838-19.522,28.373
		C373.73,502.34,365.287,504.843,356.599,504.843z"/>
	<path class="st0" d="M348.973,363.19v0.243l0.933-1.582c3.854-5.233,7.262-10.79,10.263-16.59
		c5.436-10.345,9.492-21.499,12.007-33.262c3.57-16.957,3.854-34.155,0.77-51.152l-0.082-0.567c-0.364-1.906-0.77-3.732-1.175-5.598
		l-0.082-0.203l-0.122-0.568c-0.446-1.866-0.933-3.772-1.461-5.638l-0.08-0.244l-0.042-0.243
		c-4.502-15.537-11.642-29.774-20.931-42.267c-10.303-13.914-23.283-25.637-38.13-34.561c-12.372-7.424-26.042-12.899-40.605-15.982
		c-9.126-1.947-18.457-2.922-27.665-2.922c-14.36,0-28.314,2.354-41.416,6.775c-13.792,4.583-26.691,11.439-38.13,20.12
		c-24.785,18.74-42.998,46.04-49.812,77.964c-3.611,16.914-3.894,34.154-0.772,51.111l0.082,0.608
		c0.325,1.866,0.73,3.692,1.177,5.517l0.04,0.284l0.122,0.527c0.446,1.906,0.933,3.772,1.5,5.638l0.122,0.528
		c2.678,9.29,6.369,18.214,10.913,26.61c7.829,14.36,18.294,27.218,30.99,37.927l0.325,0.284c1.582,1.298,3.083,2.555,4.665,3.731
		l0.406,0.325l0.243,0.162c0.69,0.527,1.379,1.055,2.109,1.542c0.812,0.609,1.623,1.217,2.475,1.784l0.324,0.203
		c14.402,9.857,30.262,16.632,47.217,20.201c9.086,1.948,18.417,2.962,27.665,2.962c3.124,0,6.246-0.123,9.33-0.366
		C291.129,413.733,326.339,393.572,348.973,363.19z M317.779,300.437c-1.46,6.815-3.814,13.265-6.936,19.227
		c-10.061,19.35-28.11,33.75-49.286,39.186c-6.085,1.582-12.413,2.393-18.862,2.393c-5.354,0-10.71-0.567-15.982-1.703
		c-41.416-8.802-67.945-49.65-59.143-91.066c4.341-20.485,16.834-37.684,33.587-48.475c12.088-7.828,26.407-12.33,41.497-12.33
		c5.355,0,10.75,0.567,16.023,1.663c19.998,4.259,37.197,16.103,48.394,33.343c1.378,2.11,2.636,4.3,3.772,6.49
		C319.036,264.903,321.511,282.872,317.779,300.437z"/>
	<path class="st0" d="M242.818,416.696c-9.178,0-18.475-0.994-27.632-2.958c-16.947-3.568-32.814-10.357-47.16-20.178
		c-1.174-0.77-1.983-1.375-2.794-1.984c-0.726-0.482-1.406-1.002-2.086-1.522l-0.673-0.506c-1.362-1.014-2.664-2.086-4.01-3.194
		l-0.649-0.534c-12.976-10.953-23.39-23.699-31.276-38.164c-4.598-8.496-8.265-17.438-10.9-26.578
		c-0.688-2.393-1.174-4.254-1.62-6.158l-0.162-0.81c-0.446-1.825-0.85-3.646-1.174-5.508c-3.194-17.51-2.934-34.684,0.689-51.658
		c6.608-30.953,24.276-58.607,49.752-77.871c11.578-8.785,24.392-15.545,38.085-20.094c13.306-4.49,27.222-6.767,41.366-6.767
		c9.258,0,18.555,0.982,27.632,2.918c14.303,3.027,27.948,8.398,40.555,15.963c14.975,9.002,27.788,20.615,38.084,34.519
		c9.43,12.684,16.463,26.887,20.905,42.217c0.65,2.348,1.135,4.252,1.581,6.118l0.375,1.56c0.347,1.592,0.69,3.166,1.002,4.801
		c3.148,17.473,2.889,34.662-0.689,51.657c-2.487,11.634-6.522,22.812-11.992,33.22c-3.059,5.913-6.508,11.489-10.25,16.57
		l-0.942,1.596c-23.177,30.867-58.426,50.271-96.699,52.978C249.055,416.575,245.937,416.696,242.818,416.696z M242.654,207.507
		c-14.723,0-29.102,4.274-41.584,12.358c-17.194,11.076-29.462,28.781-33.657,48.576c-8.819,41.498,17.767,82.435,59.266,91.256
		c5.262,1.133,10.65,1.706,16.015,1.706c6.423,0,12.782-0.806,18.902-2.398c21.247-5.453,39.249-19.766,49.388-39.266
		c3.169-6.053,5.507-12.535,6.95-19.27c3.7-17.414,1.231-35.662-6.95-51.378c-1.138-2.195-2.399-4.389-3.781-6.504
		c-11.219-17.275-28.442-29.141-48.494-33.412C253.385,208.068,247.983,207.507,242.654,207.507z"/>
</g>
</svg>
