<?xml version="1.0" encoding="utf-8"?>
<!-- Generator: Adobe Illustrator 22.1.0, SVG Export Plug-In . SVG Version: 6.00 Build 0)  -->
<svg version="1.1" id="_x31_0" xmlns="http://www.w3.org/2000/svg" xmlns:xlink="http://www.w3.org/1999/xlink" x="0px" y="0px"
	 viewBox="0 0 512 512" style="enable-background:new 0 0 512 512;" xml:space="preserve">
<style type="text/css">
	.st0{fill:#374149;}
</style>
<g>
	<path class="st0" d="M496.799,106.794c23.862-28.926,13.33-48.522,7.664-55.519c-4.398-5.865-19.73-24.126-35.525-39.922
		c-13.131-13.13-37.523-17.661-62.379,1.733c-11.668,9.13-181.62,142.829-264.134,207.877c-13.594-1.6-26.124,5.865-34.058,14.73
		c-1.53,1.666-3.332,4-4.866,6.466c-9.998,2.666-18.66,7.332-24.326,12.862c-2.334,2.334-4.133,4.667-5.065,7.066
		c-14.196,4.331-25.661,14.196-31.127,22.726c-0.398,0.667-0.73,1.401-1.066,1.998c-6.466,3.801-17.329,13.731-24.126,20.396
		c-8.066,8.066-20.53,30.792-16.862,43.922c3.532,12.596,32.525,18.531,62.582,5.931c3.867-1.6,10.532-7.199,12.6-10.598
		c10.395,2.002,20.326,0.866,28.59-3.664c7.797-4.331,13.595-11.597,16.128-19.729c14.465-0.999,24.926-10.665,29.995-19.464
		c2.462-4.597,3.863-8.928,4.062-13.126c15.464-5.065,25.195-16.662,28.458-25.126l0.066-0.066
		c66.718-45.522,141.834-96.643,195.285-132.766c-36.457,53.919-88.511,130.631-132.698,195.48l0.917,0.918
		c-8.487,3.286-20.053,12.912-25.134,28.426c-4.183,0.222-8.55,1.654-13.057,4.109c-8.866,5.054-18.519,15.586-19.561,29.972
		c-8.125,2.552-15.351,8.312-19.682,16.163c-4.546,8.214-5.717,18.179-3.66,28.586c-3.387,2.068-9.018,8.666-10.649,12.585
		c-12.538,30.081-6.658,59.05,6.005,62.582c13.115,3.656,35.83-8.745,43.887-16.806c6.657-6.802,16.592-17.719,20.435-24.201
		c0.609-0.316,1.28-0.694,1.947-1.069c8.558-5.479,18.422-16.955,22.734-31.092c2.416-0.949,4.742-2.685,7.118-5.062
		c5.49-5.638,10.11-14.363,12.768-24.353c2.544-1.518,4.85-3.383,6.489-4.878c9.244-8.238,16.962-21.489,14.528-35.907
		c0.011-0.02,0.023-0.035,0.035-0.051C354.969,286.611,487.469,118.122,496.799,106.794z M444.479,20.882
		c8.398,5.065,8,10.266,6.33,15.663c-2.466,7.933-19.058,35.057-20.061,36.726c-33.258,21.524-155.889,104.97-237.67,160.622
		l-13.462-16.264c88.242-69.45,228.87-180.218,239.402-188.35C429.484,21.085,438.146,19.75,444.479,20.882z M437.881,80.798
		c1.932-2.864,3.134-4.998,3.867-6.13c2.864-4.866,5.865-9.33,8.53-13.598c7.866-12.53,13.594-22.925,6.466-32.723
		c-0.062-0.187-0.141-0.262-0.312-0.433l0.004-0.008c5.389,5.393,10.711,11.113,15.569,16.638
		c7.332,8.132,13.462,15.46,16.53,19.327c4.066,5.264,5.065,14.797-7.531,29.926c-8.463,10.333-117.969,149.56-187.418,237.934
		c0,0.004,0,0.004,0,0.004l-16.256-13.341C333.847,235.354,418.023,111.59,437.881,80.798z M115.098,248.289
		c7.598-5.065,16.397-5.065,19.796,0.066c3.398,4.998,0,13.197-7.664,18.195c-7.598,5.065-16.397,5.065-19.795,0.066
		C104.036,261.486,107.501,253.354,115.098,248.289z"/>
</g>
</svg>
