<?xml version="1.0" encoding="utf-8"?>
<!-- Generator: Adobe Illustrator 18.1.1, SVG Export Plug-In . SVG Version: 6.00 Build 0)  -->
<!DOCTYPE svg PUBLIC "-//W3C//DTD SVG 1.1//EN" "http://www.w3.org/Graphics/SVG/1.1/DTD/svg11.dtd">
<svg version="1.1" id="_x31_0" xmlns="http://www.w3.org/2000/svg" xmlns:xlink="http://www.w3.org/1999/xlink" x="0px" y="0px"
	 viewBox="0 0 512 512" style="enable-background:new 0 0 512 512;" xml:space="preserve">
<style type="text/css">
	.st0{fill:#374149;}
</style>
<g>
	<path class="st0" d="M170.754,237.566c-7.762,0-14.042,6.922-14.042,15.445c0,8.524,6.281,15.446,14.042,15.446
		c7.762,0,14.047-6.922,14.047-15.446C184.802,244.487,178.517,237.566,170.754,237.566z M174.958,254.37
		c-2.32,0-4.203-2.078-4.203-4.641c0-2.558,1.883-4.602,4.203-4.602c2.321,0,4.199,2.043,4.199,4.602
		C179.157,252.292,177.278,254.37,174.958,254.37z"/>
	<path class="st0" d="M269.025,237.566c-7.766,0-14.047,6.922-14.047,15.445c0,8.524,6.282,15.446,14.047,15.446
		c7.762,0,14.043-6.922,14.043-15.446C283.068,244.487,276.786,237.566,269.025,237.566z M273.224,254.37
		c-2.321,0-4.199-2.078-4.199-4.641c0-2.558,1.878-4.602,4.199-4.602c2.32,0,4.242,2.043,4.242,4.602
		C277.466,252.292,275.544,254.37,273.224,254.37z"/>
	<path class="st0" d="M169.954,203.288c-0.657,0-16.399,0.141-28.555,7.274c-0.328,0.187-0.676,0.328-0.996,0.523l0.008,0.012
		c-0.047,0.027-0.098,0.046-0.145,0.074l4.282,6.766c10.285-6.563,25.289-6.645,25.406-6.645V203.288z"/>
	<path class="st0" d="M276.466,203.288v0.004c-0.028,0-0.145-0.004-0.161-0.004v8.004c0.161,0,15.122,0.082,25.406,6.645
		l4.282-6.766c-11.914-7.59-27.954-7.867-29.477-7.874C276.509,203.292,276.47,203.292,276.466,203.288z"/>
	<path class="st0" d="M465.955,80.565c-7.786-9.894-18.321-20.786-31.734-31.286c-0.41-0.324-0.813-0.644-1.226-0.965
		c-2.126-1.637-4.34-3.25-6.614-4.859c-1.114-0.793-2.226-1.586-3.383-2.371c-1.824-1.238-3.714-2.453-5.629-3.664
		c-1.679-1.066-3.375-2.125-5.133-3.176c-1.668-0.988-3.39-1.953-5.121-2.918c-2.074-1.16-4.168-2.305-6.344-3.426
		c-1.714-0.883-3.484-1.738-5.258-2.594c-2.258-1.09-4.535-2.165-6.898-3.207c-2.012-0.891-4.09-1.734-6.172-2.586
		c-2.207-0.898-4.418-1.789-6.715-2.641c-2.586-0.965-5.258-1.867-7.945-2.762c-1.906-0.633-3.794-1.27-5.754-1.871
		c-3.442-1.054-7.004-2.019-10.613-2.957c-1.333-0.344-2.634-0.707-3.989-1.031c-4.574-1.117-9.309-2.106-14.152-3.015
		c-0.496-0.09-0.969-0.196-1.469-0.286c-18.141-3.301-38.051-5.176-60.063-4.93c-72.25,0.782-128.43,41.961-163.645,79.512
		c-7.918,8.446-16.313,16.386-24.856,24.207c-11.156,10.211-19.246,21.574-23.957,33.641l-1,2.758
		c-2.519,7.282-3.801,14.766-3.801,22.406v48.653c-10.805,3.644-19.687,11.363-24.606,21.847
		c-7.645,16.286-3.961,35.891,9.762,52.375c4.641,5.562,10.043,9.562,15.446,12.442c-15.406,23.047-25.809,49.254-22.809,85.024
		c2.684,32.246,23.207,64.578,56.297,88.742C113.821,490.035,157.911,512,224.689,512c66.738,0,110.832-21.965,136.078-40.371
		c33.09-24.164,53.614-56.496,56.297-88.742c3.078-37.09-8.164-63.938-24.488-87.582c3.961-2.523,7.801-5.805,11.203-9.883
		c13.762-16.484,17.406-36.09,9.762-52.375c-5-10.644-14.082-18.406-25.125-22.046v-48.454c0-7.039-1.082-13.961-3.242-20.684
		l-1.558-4.48c-2.684-6.922-6.485-13.566-11.363-19.926c-0.481-22.886,4.16-45.934,23.164-52.054
		c17.418-5.602,33.125-0.313,45.394,7.422c2.039,1.325,4.074,2.738,6.098,4.332c-17.809,1.692-31.813,16.528-32.234,34.657
		c-0.453,19.328,15.348,35.984,34.672,36.515c20.141,0.559,36.695-15.652,36.695-35.672
		C486.041,98.569,477.838,86.326,465.955,80.565z M470.037,112.654c0,10.84-8.801,19.684-19.683,19.684
		c-10.844,0-19.688-8.844-19.688-19.684c0-10.843,8.844-19.687,19.688-19.687C461.236,92.967,470.037,101.811,470.037,112.654z
		 M386.022,406.199c-0.11,0.234-0.188,0.468-0.301,0.706c-7.149,14.742-19.29,29.918-36.344,43.126
		c-0.394,0.301-0.754,0.617-1.153,0.918c-2.266,1.719-4.738,3.348-7.172,4.989c-1.625,1.086-3.183,2.203-4.878,3.25
		c-1.27,0.789-2.657,1.516-3.969,2.282c-3.035,1.758-6.07,3.515-9.321,5.137c-0.007,0.004-0.011,0.004-0.015,0.007
		c-26.062,12.989-58.993,21.383-98.18,21.383c-39.012,0-71.809-8.332-97.821-21.222c-0.145-0.074-0.309-0.141-0.454-0.215
		c-3.101-1.547-5.996-3.23-8.902-4.902c-1.458-0.847-2.993-1.652-4.395-2.527c-1.558-0.961-2.984-1.988-4.48-2.981
		c-2.578-1.73-5.18-3.449-7.566-5.266c-0.274-0.203-0.516-0.418-0.782-0.621c-17.222-13.266-29.461-28.547-36.66-43.379
		c-0.058-0.125-0.102-0.246-0.16-0.371c-1.27-2.648-2.36-5.278-3.313-7.882c-2.125-6.008-3.469-11.969-3.954-17.742
		c-1.878-22.367,2.485-39.973,10.485-55.734c2.082,5.199,4.68,10.16,7.762,14.804c8.324,28.966,40.051,50.614,77.821,50.614
		c5.882,0,11.645-0.523,17.164-1.523c2.481,2.762,5.402,5.324,8.684,7.684c5.722,4.042,12.363,7.242,19.726,9.441
		c4.481,1.36,9.16,2.321,13.961,2.844c-0.078,0.957,0,1.961,0.203,2.918c1.668,8.73,11.485,14.445,23.211,14.266
		c-0.023,0.246-0.094,0.484-0.106,0.738c-0.289,6.711,4.992,11.836,11.801,11.442c6.805-0.394,12.554-6.152,12.844-12.867
		c0.023-0.582,0.004-1.148-0.055-1.699c-0.074-0.722-0.105-1.449-0.129-2.176c-0.011-0.538-0.004-1.058,0.02-1.562
		c0.05-1.289,0.222-2.55,0.562-3.77c0.152-0.554,0.351-1.07,0.57-1.574c0.23-0.535,0.43-1.082,0.746-1.59
		c2.161-3.457,3.07-7.289,2.348-11.09c-0.114-0.633-0.41-1.184-0.618-1.774c-0.027-0.09-0.07-0.199-0.102-0.289
		c-0.21-0.574-0.328-1.188-0.601-1.738c0.801-0.481,1.519-1,2.281-1.519c3.282-2.36,6.199-4.922,8.68-7.684
		c5.523,1,11.285,1.523,17.164,1.523c37.133,0,68.422-20.886,77.383-49.133c4.476-6.457,8.008-13.594,10.511-21.176
		c0.188-0.519,0.45-1,0.63-1.523c10.206,17.457,16.102,36.715,13.984,62.149c-0.477,5.778-1.816,11.742-3.942,17.754
		C388.283,401.136,387.228,403.66,386.022,406.199z M255.255,383.851c-2.461,1.699-5.149,3.207-8.039,4.438
		c-2.16,1.039-4.402,1.84-6.762,2.558c-1.961,0.594-3.992,1.05-6.047,1.446c-0.523,0.098-1.054,0.191-1.582,0.281
		c-1.926,0.321-3.875,0.574-5.836,0.73c-1.805,0.137-3.614,0.227-5.418,0.227c-6.562,0.038-13.086-0.883-19.125-2.684
		c-4.394-1.324-8.313-3.195-11.93-5.355c-0.93-0.586-1.95-1.07-2.817-1.734c14.157-5.766,25.887-14.863,33.75-26.078
		c6.699,9.558,16.355,17.442,27.793,23.172C251.228,381.874,253.158,382.957,255.255,383.851z M217.45,304.105
		c-0.321,0.359-0.722,0.722-1.122,1c-1.562,1.199-3.562,1.882-5.801,1.882c-2.922,0-5.484-1.203-7.082-3.082
		c-0.121-0.122-0.203-0.242-0.282-0.359c-0.878-1.164-1.398-2.563-1.398-4.043c0-3.558,2.918-6.562,6.879-7.282
		c0.602-0.121,1.242-0.199,1.882-0.199c1.438,0,2.758,0.278,3.962,0.84h0.038c2.84,1.199,4.801,3.719,4.801,6.641
		C219.329,301.226,218.61,302.823,217.45,304.105z M88.294,324.671c0-2.203,0.722-4.121,1.84-5.641
		c1.801-2.32,4.641-3.722,7.562-3.722c1.922,0,3.882,0.602,5.683,1.922c4.918,3.641,10.364,6.922,16.242,9.762
		c13.606,6.481,27.727,9.602,41.012,9.602c9.844,0,19.164-1.718,27.446-4.961c1,1.082,2.121,2.082,3.281,3.039h0.043
		c3.758,3.164,8.321,5.722,13.363,7.485c1.79,0.609,3.629,1.074,5.5,1.484c0.348,0.102,0.649,0.199,1.004,0.301
		c-2.359,4.55-5.633,8.703-9.586,12.457c-6.922,6.524-15.926,11.684-26.246,14.805c-3.602,1.082-7.324,1.922-11.242,2.481h-0.042
		c-1.84,0.281-3.68,0.48-5.602,0.641c-2.039,0.16-4.161,0.238-6.282,0.238c-26.324,0-48.934-12.32-58.734-30.007
		c-3.363-6.039-5.242-12.68-5.242-19.723V324.671z M231.665,343.902c2.34-0.48,4.606-1.113,6.79-1.867
		c5-1.801,9.523-4.359,13.242-7.48c1.121-0.922,2.164-1.922,3.121-2.922c8.285,3.242,17.606,4.961,27.45,4.961
		c13.281,0,27.406-3.121,41.011-9.602c5.879-2.839,11.321-6.121,16.242-9.762c1.801-1.32,3.762-1.922,5.684-1.922
		c3.121,0,6.082,1.558,7.84,4.16c1,1.442,1.562,3.203,1.562,5.203v0.16c0,7.52-2.122,14.602-5.965,20.965
		c-10.161,17.004-32.329,28.766-58.016,28.766c-1.918,0-3.84-0.078-5.719-0.199c-2.082-0.16-4.16-0.359-6.164-0.679h-0.038
		c-3.879-0.558-7.602-1.398-11.203-2.481c-10.524-3.16-19.723-8.442-26.688-15.164c-3.266-3.199-5.965-6.722-8.145-10.469
		C232.364,345.007,231.938,344.476,231.665,343.902z M385.334,270.058c-2.16,2.598-4.722,4.558-7.363,6.082
		c-4.118,2.398-8.519,3.64-12.043,4.32c-3.84,0.719-6.679,0.758-7.082,0.758h-0.039v12.563c0,2.851-0.25,5.617-0.622,8.336
		c-0.046,0.254-0.062,0.5-0.117,0.758c-3.75-2.297-8.168-3.57-12.863-3.57c-5.485,0-10.723,1.762-15.164,5.039
		c-4.242,3.121-8.844,5.882-13.684,8.203c-10.965,5.242-22.77,8.042-34.09,8.042c-7.122,0-13.766-1.082-19.645-3.121
		c0.48-2,0.718-4.082,0.718-6.203c0-3.558-0.679-7-1.961-10.242c-1.598-4-4.082-7.679-7.32-10.882
		c-4.16-4.199-9.562-7.52-15.727-9.723c-5.16-1.839-10.882-2.839-16.882-2.839c-5.282,0-10.363,0.801-15.004,2.242h-0.039
		c-6.402,2-12.086,5.199-16.527,9.321c-3.398,3.121-6.082,6.722-7.879,10.683c-1.562,3.562-2.442,7.442-2.442,11.442
		c0,2.121,0.238,4.203,0.719,6.203c-5.883,2.039-12.524,3.121-19.645,3.121c-11.324,0-23.125-2.801-34.129-8.042
		c-4.801-2.321-9.402-5.082-13.645-8.203c-4.442-3.278-9.683-5.039-15.164-5.039c-4.11,0-7.934,1.098-11.371,2.84
		c-0.351,0.16-0.726,0.23-1.074,0.406c-0.238-1.551-0.398-3.18-0.476-4.766c-0.122-1.32-0.161-2.64-0.161-4.003v-12.563h-0.042
		c-0.157,0-0.798,0-1.758-0.078c-2.602-0.16-7.722-0.762-13.086-2.922c-0.774-0.312-1.555-0.691-2.336-1.074
		c-0.594-0.294-1.16-0.602-1.722-0.922c-1.481-0.836-2.922-1.809-4.298-2.957c-0.492-0.41-0.957-0.844-1.414-1.286
		c-0.637-0.617-1.286-1.222-1.871-1.922c-11.805-14.207-9.446-27.129-1.121-33.371l9.121,0.442l8.602,13.637l8.446,13.687v-0.27
		l0.16,0.27v-30.246l1.598-2.84c1.722-3.122,3.844-6.203,6.125-9.043c1.398-1.68,2.84-3.32,4.282-4.84
		c1.078-1.121,2.199-2.242,3.359-3.324c0.32-0.317,0.68-0.637,1-0.957l0.121-0.122c1.238-1.082,2.481-2.16,3.801-3.242l0.758-0.398
		l0.843-0.922c1.477-1.16,3.078-2.32,4.879-3.558l0.84-0.602c1.602-1.122,3.242-2.203,4.641-3.082c0.48-0.281,1-0.558,1.242-0.718
		c4.122-2.52,8.524-4.883,13.325-7.164c0.32-0.16,0.641-0.278,0.718-0.321c2.16-1.039,4.402-2.039,6.723-3l0.48-0.199
		c5.082-2.078,10.402-3.961,15.684-5.602l0.84-0.238c8.601-2.602,17.566-4.683,26.566-6.202l0.519-0.082
		c6.203-1.039,12.566-1.84,18.848-2.359l0.519-0.039c3.16-0.238,6.402-0.442,9.602-0.602h0.762c6.602-0.32,13.562-0.32,20.164,0
		h0.762c3.199,0.16,6.441,0.363,9.602,0.602l0.519,0.039c6.282,0.519,12.645,1.32,18.926,2.359l0.398,0.082
		c9.043,1.519,18.008,3.601,26.77,6.242l0.481,0.16c5.442,1.641,10.722,3.52,15.883,5.641l0.48,0.199
		c2.282,0.961,4.562,1.961,6.523,2.883c0.278,0.16,0.598,0.278,1.118,0.519c4.562,2.16,9.004,4.562,12.926,6.922
		c0.398,0.281,0.879,0.558,1.16,0.718c1.68,1.039,3.321,2.121,5.161,3.402l0.84,0.558c1.64,1.16,3.242,2.363,4.8,3.602l1.001,0.961
		l0.562,0.282c1.238,1.039,2.441,2.078,3.441,2.961l0.321,0.278c0.359,0.363,0.679,0.683,1.039,1
		c1.16,1.082,2.281,2.203,3.242,3.203c1.52,1.602,3,3.281,4.238,4.801c2.442,3,4.562,6.082,6.282,9.203l2.882,5.121v15.09
		l-0.137,12.794l0.137-0.219v0.301l2.039-3.281l15.203-24.126l8.286-0.398C394.775,242.89,397.217,255.85,385.334,270.058z
		 M213.888,82.647c2.519-0.082,5-0.122,7.562-0.122c2.519,0,5.043,0.039,7.641,0.122c37.531,1.117,72.34,10.562,98.106,26.566
		c13.406,8.359,23.45,17.965,29.649,28.168c2.402,3.918,4.242,7.922,5.484,12c1.398,4.324,2.078,8.766,2.078,13.164v19.035
		l-0.157,18.582c-0.75-0.75-1.496-1.496-2.242-2.207c-0.442-0.481-0.883-0.918-1.363-1.359l-1.598-1.481
		c-1.684-1.481-3.402-2.961-5.242-4.442l-1.039-0.961l-0.442-0.238c-1.762-1.359-3.562-2.683-5.32-3.922
		c-0.481-0.359-1.004-0.719-1.282-0.883c-1.922-1.359-3.882-2.637-5.882-3.878l-1.238-0.762c-4.844-2.918-9.965-5.719-15.125-8.161
		l-1.122-0.519c-2.121-1-4.281-1.961-6.48-2.883c-0.402-0.16-0.762-0.32-1.161-0.48c-0.242-0.118-0.48-0.199-0.679-0.278
		c-5.602-2.32-11.566-4.446-17.727-6.324c-0.121-0.039-0.238-0.078-0.359-0.122c-0.281-0.117-0.558-0.199-0.84-0.277
		c-9.523-2.84-19.406-5.16-29.449-6.844l-0.481-0.078c-2.726-0.449-5.492-0.66-8.242-1.023c-1.531-0.203-3.09-0.398-4.656-0.578
		c-2.801-0.324-5.594-0.804-8.386-1.038l-0.52-0.043c-3.402-0.278-6.844-0.477-10.281-0.637h-0.762c-7.16-0.32-14.605-0.32-21.805,0
		h-0.722c-3.442,0.16-6.882,0.359-10.281,0.637l-0.52,0.043c-2.754,0.23-5.512,0.706-8.281,1.027
		c-1.634,0.187-3.29,0.39-4.934,0.609c-2.695,0.36-5.402,0.563-8.07,1.004l-0.563,0.078c-10,1.684-19.843,4.004-29.367,6.844
		c-0.281,0.078-0.602,0.199-0.922,0.277c-0.118,0.043-0.238,0.082-0.359,0.122c-3.039,0.922-6.039,1.922-9,2.961
		c-2.922,1.082-5.844,2.199-8.645,3.363c-0.238,0.078-0.442,0.16-0.68,0.278c-2.602,1.082-5.16,2.199-7.922,3.48l-0.68,0.321
		c-2.046,0.984-3.961,2.168-5.957,3.218c-1.211,0.637-2.422,1.293-3.614,1.954c-1.957,1.082-3.988,2.031-5.914,3.191l-1.039,0.641
		c-2.004,1.242-3.961,2.519-5.645,3.679c-0.519,0.363-1.038,0.723-1.32,0.922c-1.961,1.359-3.801,2.722-5.641,4.16l-0.641,0.359
		l-0.918,0.922c-1.762,1.398-3.442,2.879-5.242,4.481l-1.402,1.282c-0.277,0.281-0.598,0.558-0.878,0.839l-1.731,1.731l-1.148,1.007
		v-37.629c0-4.398,0.68-8.84,2.078-13.164c1.242-4.078,3.082-8.082,5.484-12c6.199-10.203,16.242-19.809,29.645-28.168
		C141.426,93.21,176.278,83.764,213.888,82.647z"/>
	<path class="st0" d="M250.673,444.898c-4.726,0.274-8.718,4.274-8.918,8.934c-0.199,4.664,3.469,8.222,8.191,7.949
		c4.726-0.273,8.719-4.277,8.922-8.938C259.068,448.179,255.4,444.625,250.673,444.898z"/>
</g>
</svg>
