<?xml version="1.0" encoding="utf-8"?>
<!-- Generator: Adobe Illustrator 24.1.1, SVG Export Plug-In . SVG Version: 6.00 Build 0)  -->
<svg version="1.1" id="_x31_0" xmlns="http://www.w3.org/2000/svg" xmlns:xlink="http://www.w3.org/1999/xlink" x="0px" y="0px"
	 viewBox="0 0 512 512" style="enable-background:new 0 0 512 512;" xml:space="preserve">
<style type="text/css">
	.st0{fill:#374149;}
</style>
<g>
	<path class="st0" d="M176.375,483.69c2.014,0,3.886-0.081,5.602-0.235c-0.606,2.03-0.934,4.184-0.934,6.408
		c0,12.206,9.964,22.137,22.21,22.137c22.25,0,42.07-11.938,52.784-30.236C266.763,500.062,286.606,512,308.893,512
		c12.25,0,22.214-9.93,22.214-22.137c0-2.224-0.327-4.375-0.934-6.404c1.728,0.154,3.559,0.231,5.526,0.231
		c33.674,0,61.067-27.427,61.067-61.142c0-12.25-9.93-22.214-22.136-22.214c-11.722,0-21.442,9.133-22.122,20.699
		c-0.342,4.827-1.915,13.379-8.585,16.434c-2.698,1.242-5.493,1.871-8.298,1.871c-9.302,0-16.868-7.534-16.868-16.791v-62.52
		c7.474-6.066,11.974-15.698,11.974-26.103c0-10.515-4.5-20.177-11.974-26.203v-14.507c9.666-15.6,20.555-46.292,20.555-105.363
		c0-4.313-0.088-8.342-0.258-12.202c23.736-12.346,40.836-28.416,45.101-42.575c3.313-10.735-1.915-24.555-16.974-44.832
		c-18.773-25.096-67.194-75.642-100.106-85.506c-7.61-3.691-14.787-3.61-22.107,0.011c-33.071,9.905-81.392,60.424-100.08,85.502
		c-19.214,25.754-19.221,37.431-17.063,44.773c4.262,14.155,21.365,30.199,45.122,42.553c-0.176,3.901-0.264,8.011-0.264,12.276
		c0,59.06,10.89,89.759,20.555,105.363v14.618c-5.5,4.515-9.434,10.905-11.011,18.008c-0.581,2.419-0.886,5.217-0.886,8.085
		c0,10.412,4.467,20.015,11.898,26.056v61.138c0,9.368-6.636,17.353-15.078,18.177c-0.588,0.055-1.118,0.044-1.713,0.044
		c-9.302,0-16.865-7.534-16.865-16.791c0-12.25-9.93-22.214-22.137-22.214c-12.25,0-22.214,9.964-22.214,22.214
		C115.234,456.263,142.661,483.69,176.375,483.69z M145.212,429.086c0.272,1.298,0.75,2.503,1.17,3.738
		c0.258,0.746,0.422,1.526,0.731,2.243c0.651,1.537,1.493,2.952,2.368,4.35c0.214,0.338,0.371,0.706,0.596,1.033
		c0.982,1.449,2.121,2.758,3.323,4.022c0.214,0.224,0.394,0.474,0.614,0.691c1.198,1.187,2.518,2.224,3.893,3.21
		c0.331,0.235,0.633,0.5,0.974,0.724c1.283,0.846,2.651,1.548,4.062,2.206c0.548,0.258,1.082,0.534,1.644,0.762
		c1.279,0.507,2.603,0.886,3.959,1.228c0.806,0.21,1.603,0.411,2.43,0.555c1.246,0.213,2.515,0.316,3.806,0.382
		c0.562,0.029,1.095,0.169,1.666,0.169c0.838,0,1.673-0.044,2.507-0.118c0.217-0.018,0.419,0.026,0.636,0.007
		c4.081-0.401,7.93-1.647,11.416-3.544c0.798-0.43,1.496-1,2.25-1.497c0.86-0.57,1.758-1.073,2.559-1.72
		c1.114-0.901,2.099-1.945,3.088-2.986c0.36-0.378,0.772-0.698,1.118-1.099c0.926-1.074,1.71-2.265,2.497-3.456
		c0.312-0.47,0.687-0.89,0.974-1.379c0.65-1.095,1.143-2.279,1.669-3.448c0.302-0.67,0.68-1.294,0.938-1.986
		c0.422-1.129,0.677-2.32,0.978-3.496c0.21-0.798,0.504-1.559,0.654-2.379c0.372-2.018,0.566-4.085,0.566-6.18v-67.766v-1.622
		l-0.779-0.452c-0.666-0.654-1.695-1.011-2.986-1.769c-2.114-1.221-3.86-3.114-5.242-5.353c-0.199-0.32-0.467-0.581-0.644-0.919
		c-0.478-0.897-0.782-1.926-1.118-2.934c-0.162-0.496-0.415-0.945-0.54-1.463c-0.379-1.551-0.589-3.202-0.589-4.915
		c0-1.658,0.151-3.239,0.53-4.67c0.262-1.217,0.64-2.378,1.11-3.47c1.419-3.198,3.714-5.882,6.603-7.618l3.654-2.191v-3.736v-12.574
		c3.162,2.408,7.154,3.688,11.372,3.688h72.734c4.143,0,8.132-1.28,11.294-3.688v12.574c0,0.136,0.051,0.258,0.062,0.39l0.014,6.61
		h5.059c0.401,0.309,0.805,0.61,1.176,0.959c0.416,0.382,0.824,0.765,1.199,1.195c0.618,0.724,1.162,1.53,1.669,2.371
		c0.224,0.375,0.474,0.728,0.669,1.125c0.497,0.982,0.868,2.055,1.191,3.154c0.114,0.382,0.28,0.736,0.368,1.126
		c0.353,1.514,0.566,3.102,0.566,4.754c0,1.625-0.214,3.173-0.555,4.654c-0.129,0.559-0.357,1.066-0.53,1.603
		c-0.286,0.882-0.578,1.761-0.974,2.562c-0.279,0.562-0.629,1.066-0.956,1.588c-0.434,0.684-0.878,1.354-1.39,1.949
		c-0.386,0.452-0.82,0.85-1.25,1.25c-0.398,0.367-0.824,0.683-1.254,1h-5.066v4.82v69.196c0,17.563,14.32,31.85,31.927,31.85
		c2.411,0,4.864-0.261,7.334-0.809c0.092-0.018,0.177-0.051,0.265-0.07c2.242-0.515,4.504-1.262,6.765-2.29
		c0.07-0.034,0.143-0.041,0.214-0.074c1.316-0.603,2.555-1.317,3.735-2.118c0.434-0.291,0.805-0.64,1.213-0.956
		c0.699-0.534,1.405-1.059,2.048-1.666c0.515-0.482,0.967-1.022,1.442-1.544c0.474-0.518,0.963-1.018,1.404-1.582
		c0.46-0.584,0.857-1.213,1.272-1.834c0.39-0.581,0.791-1.143,1.147-1.761c0.368-0.643,0.681-1.32,1.011-1.989
		c0.324-0.662,0.662-1.31,0.949-2.004c0.279-0.684,0.507-1.39,0.75-2.092c0.258-0.746,0.534-1.478,0.75-2.254
		c0.176-0.629,0.298-1.276,0.445-1.916c0.217-0.922,0.441-1.834,0.603-2.798c0.003-0.011,0.003-0.026,0.003-0.04
		c0.246-1.49,0.449-3.011,0.559-4.593c0.055-0.911,0.294-1.775,0.662-2.558c1.177-2.408,3.614-4.059,6.434-4.059
		c3.904,0,7.077,3.21,7.077,7.154c0,25.409-20.64,46.082-46.008,46.082c-2.243,0-4.563-0.154-6.879-0.526
		c-0.022-0.004-0.041-0.004-0.059-0.007c-0.01,0-0.018-0.004-0.026-0.004c-2.544-0.36-4.978-1.011-7.346-1.779
		c-0.846-0.28-1.666-0.622-2.489-0.953c-1.474-0.581-2.901-1.242-4.287-1.974c-0.93-0.49-1.86-0.978-2.75-1.537
		c-1.276-0.791-2.474-1.688-3.662-2.603c-0.775-0.596-1.595-1.129-2.334-1.776c-1.721-1.514-3.313-3.166-4.794-4.915
		c-0.68-0.802-1.272-1.684-1.901-2.53c-0.857-1.162-1.691-2.338-2.445-3.578c-0.592-0.97-1.136-1.97-1.658-2.989
		c-0.621-1.202-1.173-2.442-1.694-3.695c-0.467-1.14-0.949-2.272-1.334-3.456c-1.614-4.901-2.57-10.078-2.57-15.419v-51.2v-7.078
		c0-3.463-2.786-6.25-6.25-6.25c-3.39,0-6.173,2.786-6.173,6.25v7.078v18.269v62.825c0,17.618,14.229,31.85,31.846,31.85
		c3.919,0,7.155,3.239,7.155,7.228c0,3.838-3.236,7.078-7.155,7.078c-2.551,0-5.044-0.265-7.493-0.666
		c-0.371-0.058-0.746-0.099-1.114-0.169c-2.254-0.423-4.438-1.041-6.57-1.783c-0.522-0.18-1.044-0.368-1.558-0.57
		c-1.986-0.773-3.909-1.67-5.754-2.699c-0.584-0.33-1.147-0.691-1.717-1.048c-1.562-0.959-3.066-2.003-4.496-3.143
		c-0.702-0.558-1.375-1.154-2.045-1.754c-1.15-1.026-2.242-2.114-3.283-3.254c-0.606-0.662-1.22-1.316-1.783-2.011
		c-1.146-1.412-2.187-2.905-3.165-4.449c-0.438-0.694-0.875-1.39-1.28-2.106c-0.974-1.746-1.842-3.562-2.592-5.449
		c-0.254-0.632-0.482-1.279-0.706-1.93c-0.714-2.055-1.316-4.166-1.739-6.357c-0.551-2.842-0.86-5.768-0.86-8.769v-81.094v-7.078
		c0-3.463-2.787-6.25-6.25-6.25h-0.901c-3.463,0-6.25,2.786-6.25,6.173v7.154v81.094c0,3.001-0.309,5.93-0.856,8.776
		c-0.426,2.202-1.034,4.331-1.75,6.402c-0.213,0.61-0.43,1.22-0.669,1.823c-0.765,1.934-1.654,3.802-2.658,5.592
		c-0.36,0.643-0.754,1.265-1.143,1.886c-1.07,1.706-2.21,3.364-3.482,4.904c-0.427,0.518-0.901,0.99-1.35,1.486
		c-1.177,1.306-2.415,2.544-3.732,3.702c-0.474,0.422-0.938,0.857-1.434,1.258c-1.581,1.286-3.265,2.445-5.007,3.507
		c-0.482,0.298-0.956,0.606-1.449,0.882c-1.897,1.066-3.882,1.996-5.93,2.786c-0.459,0.181-0.923,0.346-1.39,0.511
		c-2.158,0.758-4.375,1.379-6.658,1.809c-0.353,0.07-0.714,0.107-1.066,0.166c-2.452,0.401-4.952,0.666-7.507,0.666
		c-0.997,0-1.938-0.202-2.79-0.562c-0.202-0.088-0.346-0.258-0.537-0.361c-0.626-0.334-1.246-0.68-1.743-1.173
		c-0.055-0.058-0.081-0.143-0.136-0.202c-0.566-0.607-1.058-1.283-1.386-2.052c-0.357-0.842-0.559-1.761-0.559-2.728
		c0-3.985,3.206-7.228,7.151-7.228c17.545,0,31.85-14.232,31.85-31.85v-62.95v-18.144v-7.078c0-3.463-2.786-6.25-6.25-6.25h-0.074
		c-3.463,0-6.25,2.786-6.25,6.25v7.078v51.2c0,5.61-0.996,11.066-2.772,16.18c-0.166,0.478-0.364,0.938-0.544,1.409
		c-0.758,1.978-1.636,3.897-2.633,5.746c-0.298,0.551-0.592,1.106-0.911,1.643c-1.045,1.769-2.214,3.449-3.464,5.062
		c-0.346,0.445-0.654,0.923-1.014,1.354c-1.585,1.897-3.306,3.669-5.162,5.29c-0.552,0.478-1.17,0.871-1.743,1.323
		c-1.353,1.074-2.75,2.092-4.228,3.007c-0.842,0.522-1.721,0.986-2.599,1.449c-1.415,0.75-2.878,1.423-4.382,2.018
		c-0.824,0.327-1.64,0.666-2.486,0.945c-2.375,0.772-4.813,1.423-7.368,1.783c-2.334,0.379-4.592,0.53-6.849,0.53
		c-25.413,0-46.082-20.674-46.082-46.082c0-0.992,0.202-1.93,0.562-2.782c0.67-1.578,1.926-2.81,3.453-3.566
		c0.132-0.066,0.227-0.184,0.36-0.243c0.857-0.36,1.794-0.562,2.779-0.562c3.905,0,7.078,3.21,7.078,7.154
		C144.525,424.788,144.771,426.972,145.212,429.086z M142.069,125.689c0.026-0.379,0.081-0.776,0.143-1.181
		c0.126-0.823,0.342-1.71,0.618-2.636c0.133-0.463,0.228-0.893,0.401-1.382c0.471-1.346,1.066-2.775,1.79-4.294
		c0.246-0.518,0.563-1.089,0.838-1.633c0.614-1.198,1.276-2.43,2.022-3.714c0.33-0.577,0.68-1.162,1.04-1.761
		c0.919-1.507,1.912-3.062,2.982-4.662c0.257-0.379,0.485-0.743,0.75-1.129c1.419-2.085,2.952-4.225,4.599-6.423
		c0.195-0.265,0.423-0.548,0.626-0.813c1.323-1.754,2.728-3.54,4.173-5.346c0.948-1.18,1.934-2.378,2.945-3.588
		c0.577-0.698,1.166-1.397,1.754-2.096c9.681-11.408,21.706-23.912,34.097-35.13c0.665-0.595,1.327-1.187,1.993-1.775
		c1.404-1.258,2.816-2.493,4.228-3.706c1.669-1.434,3.338-2.831,5-4.191c0.53-0.438,1.058-0.886,1.588-1.313
		c4.989-4.026,9.901-7.694,14.596-10.846c-20.838,27.464-41.832,79.219-46.898,134.816c-2.055-1.041-4.129-2.081-6.026-3.147
		c-0.085-0.048-0.177-0.092-0.261-0.14c-16.651-9.412-27.074-19.578-31.226-27.206c-0.673-1.279-1.221-2.53-1.577-3.728
		C142.01,127.818,141.995,126.784,142.069,125.689z M262.146,16.973l0.118,0.047c0.055,0.015,0.118,0.045,0.173,0.059
		c20.556,11.974,55.193,74.619,60.99,149.386c0.004,0.029,0.004,0.058,0.007,0.088l-0.033,0.014l0.346,5.078
		c0.048,0.75,0.07,1.559,0.114,2.32c0,0.187,0.018,0.367,0.018,0.558c0.302,4.368,0.375,8.81,0.375,13.328
		c0,3.338-0.044,6.551-0.11,9.691c-0.03,1.309-0.077,2.562-0.118,3.838c-0.051,1.706-0.106,3.405-0.176,5.052
		c-0.074,1.665-0.162,3.286-0.254,4.893c-0.063,1.063-0.126,2.114-0.195,3.151c-0.125,1.93-0.265,3.831-0.419,5.673
		c-0.037,0.438-0.077,0.864-0.114,1.298c-2.519,28.457-8.085,46.373-13.434,57.469c-0.081,0.166-0.162,0.327-0.242,0.489
		c-0.493,0.97-0.967,1.864-1.427,2.746c-0.261,0.474-0.518,0.945-0.779,1.394c-0.342,0.585-0.68,1.143-1.014,1.684
		c-0.262,0.415-0.518,0.838-0.776,1.231c-0.514,0.787-1.022,1.548-1.496,2.21c-1.129,1.585-2.181,2.864-3.162,3.842
		c-1.956,2.106-4.967,3.313-8.132,3.313H219.67c-3.239,0-6.25-1.206-8.21-3.313c-0.901-1.055-2.033-2.334-3.162-3.916
		c-1.033-1.452-2.198-3.191-3.371-5.206c-0.18-0.309-0.357-0.636-0.537-0.956c-0.544-1.066-1.129-2.129-1.662-3.327
		c-5.442-11.103-11.085-29.111-13.614-57.822c-0.03-0.346-0.062-0.684-0.089-1.03c-0.162-1.897-0.301-3.856-0.437-5.842
		c-0.063-0.997-0.126-2.004-0.184-3.022c-0.092-1.636-0.184-3.29-0.258-4.989c-0.07-1.61-0.125-3.276-0.177-4.945
		c-0.04-1.309-0.088-2.596-0.118-3.938c-0.066-3.137-0.11-6.342-0.11-9.67c0-4.518,0.077-8.96,0.378-13.328
		c0-0.268,0.022-0.518,0.03-0.782c0.04-0.71,0.058-1.478,0.106-2.17l0.239-3.574c0.047-0.511,0.092-1.022,0.15-1.533
		c5.721-74.763,40.354-137.408,60.987-149.382c0.055-0.018,0.118-0.048,0.173-0.063l0.121-0.047c2.202-0.647,4.269-0.949,6.11-0.949
		C257.881,16.024,259.943,16.326,262.146,16.973z M368.825,120.512c0.18,0.507,0.276,0.952,0.415,1.43
		c0.246,0.849,0.445,1.658,0.57,2.419c0.084,0.51,0.15,1.007,0.173,1.474c0.044,0.735-0.015,1.397-0.122,2.022
		c-0.048,0.265-0.037,0.581-0.11,0.824c-2.272,7.544-13.225,19.688-32.251,30.629c-1.228,0.699-2.529,1.375-3.812,2.055
		c-0.997,0.537-2.004,1.066-3.037,1.592c-5.052-55.549-25.979-107.334-46.829-134.808c28.523,19.18,64.969,57.101,79.671,81.557
		c0.122,0.202,0.242,0.408,0.36,0.61c0.978,1.651,1.82,3.217,2.582,4.728c0.173,0.338,0.374,0.706,0.533,1.037
		C367.726,117.651,368.336,119.126,368.825,120.512z"/>
	<path class="st0" d="M214.85,344.393c2.334-0.982,3.765-3.463,3.765-6.026v-8.96c0-2.559-1.43-5.044-3.765-6.022
		c-0.827-0.378-1.732-0.603-2.71-0.603c-4.82,0-8.662,4.971-8.662,11.144c0,6.099,3.842,10.993,8.662,10.993
		C213.118,344.918,214.023,344.768,214.85,344.393z M209.203,330.764c0-1.658,1.129-2.938,2.408-2.938
		c1.357,0,2.412,1.279,2.412,2.938c0,1.581-1.055,2.86-2.412,2.86C210.332,333.624,209.203,332.345,209.203,330.764z"/>
	<path class="st0" d="M297.15,344.393c0.827,0.375,1.805,0.526,2.71,0.526c4.82,0,8.658-4.894,8.658-10.993
		c0-6.173-3.838-11.144-8.658-11.144c-0.905,0-1.882,0.225-2.71,0.603c-2.335,0.978-3.692,3.463-3.692,6.022v8.96
		C293.458,340.93,294.815,343.411,297.15,344.393z M302.798,330.764c0,1.581-1.055,2.86-2.412,2.86c-1.28,0-2.408-1.279-2.408-2.86
		c0-1.658,1.128-2.938,2.408-2.938C301.742,327.826,302.798,329.106,302.798,330.764z"/>
</g>
</svg>
