<?xml version="1.0" encoding="utf-8"?>
<!-- Generator: Adobe Illustrator 24.1.1, SVG Export Plug-In . SVG Version: 6.00 Build 0)  -->
<svg version="1.1" id="_x31_0" xmlns="http://www.w3.org/2000/svg" xmlns:xlink="http://www.w3.org/1999/xlink" x="0px" y="0px"
	 viewBox="0 0 512 512" style="enable-background:new 0 0 512 512;" xml:space="preserve">
<style type="text/css">
	.st0{fill:#374149;}
</style>
<g>
	<path class="st0" d="M508.09,201.127c0,0.008,0,0.016,0.004,0.024c0.004,0.011,0.008,0.023,0.012,0.038L508.09,201.127z"/>
	<path class="st0" d="M511.379,334.217c0,0.004,0,0.011,0,0.015c-0.004,0.012-0.004,0.02-0.004,0.031L511.379,334.217z"/>
	<path class="st0" d="M511.382,334.201l-0.003,0.016c0,0,0.003,0,0.003-0.004V334.201z"/>
	<path class="st0" d="M511.379,334.232c0.43-3.289,0.625-6.519,0.621-9.676c-0.039-15.726-4.578-29.531-8.129-40.851l-0.008-0.019
		c-1.18-3.699-2.313-7.313-3.102-10.336c-0.813-2.977-1.203-5.52-1.183-6.106l-0.004-0.051l-0.008-0.382
		c-0.008-1.707,0.34-4.309,1.078-7.446c0.722-3.137,1.797-6.797,2.976-10.789l-0.004,0.015c2.653-9.058,6.145-20.191,6.18-32.988
		c0.004-4.656-0.488-9.519-1.703-14.453c-2.606-10.801-7.668-19.754-13.191-27.078c-5.547-7.344-11.578-13.195-16.523-18.016
		c-2.485-2.426-4.794-4.695-6.559-6.617c-1.754-1.871-2.949-3.492-3.175-3.938c-1.661-2.785-3.547-9.39-5.402-17.137
		c-1.653-6.73-3.516-14.523-6.774-22.55c-3.25-8-8.016-16.332-15.457-23.489c-7.879-7.59-16.887-12.281-25.402-15.386
		c-8.535-3.114-16.692-4.734-23.371-6.102l0.023,0.004c-3.586-0.734-6.91-1.426-9.543-2.121c-2.617-0.665-4.574-1.438-5.003-1.707
		l-0.122-0.062c-1.414-0.738-3.543-2.294-5.973-4.493c-2.445-2.183-5.21-4.965-8.23-7.988c-4.637-4.656-9.949-10.05-16.394-15.023
		c-6.446-4.973-14.156-9.566-23.414-12.098l-0.134-0.039c-6.43-1.684-13.21-2.61-20.25-2.606
		c-15.523,0.019-28.774,4.254-38.336,7.11l-0.234,0.074c-1.828,0.59-3.586,1.117-5.27,1.582l-0.106,0.027
		c-1.621,0.465-2.598,0.688-3.218,0.813c-0.641-0.133-1.676-0.375-3.266-0.824l-0.066-0.02c-1.375-0.375-3.258-0.988-5.562-1.652
		c-9.566-2.856-22.817-7.09-38.336-7.11c-6.992,0-13.801,0.918-20.222,2.617l-0.098,0.028c-9.246,2.527-16.945,7.102-23.378,12.058
		c-6.45,4.969-11.754,10.367-16.398,15.027l0.039-0.035c-4.618,4.637-8.703,8.629-11.914,10.961l-0.023,0.016
		c-1.286,0.957-2,1.398-2.278,1.543l-0.086,0.046c-0.313,0.176-1.317,0.61-2.516,0.996c-1.172,0.391-2.543,0.766-3.859,1.09
		l-0.527,0.102l-0.375,0.074l-0.25,0.066c-2.133,0.535-4.546,1.012-7.175,1.524l-0.18,0.035c-6.621,1.39-14.73,3.031-23.226,6.136
		c-8.477,3.106-17.457,7.77-25.324,15.317L71,82.319c-7.434,7.14-12.176,15.48-15.418,23.48c-3.242,8.008-5.106,15.782-6.75,22.469
		c-1.594,6.454-3.039,12.008-4.55,15.465l-0.028,0.07l-0.382,0.848l-0.058,0.105l-0.188,0.298l-0.195,0.355
		c-0.187,0.382-1.183,1.789-2.641,3.39c-1.453,1.625-3.343,3.523-5.351,5.5l0.058-0.062l-2.187,2.125l-0.07,0.074
		c-4.821,4.77-10.758,10.558-16.234,17.836c-5.465,7.266-10.5,16.16-13.102,26.898l-0.012,0.051
		c-1.156,4.859-1.625,9.636-1.625,14.218c0.035,12.824,3.504,24.012,6.184,33.16l-0.024-0.09c2.168,7.347,3.871,13.718,4.012,17.5
		l0.074,1.438c-0.082,0.73-0.274,1.93-0.562,3.187c-0.383,1.707-0.895,3.578-1.36,5.219l-0.011,0.042
		c-0.672,2.41-1.516,5.012-2.418,7.77l-0.046,0.149C4.625,295.112,0.043,308.912,0,324.654c0,3.13,0.187,6.348,0.629,9.634
		l0.008,0.042l0.019,0.16c1.215,8.813,6.039,16.723,13.321,21.829l0.062,0.042l-0.016-0.007
		c26.234,18.449,56.082,34.648,85.512,48.558l4.129,10.031l-0.015-0.035l11.262,27.602l-0.008-0.016l10.363,25.485l0.004,0.015
		c7.226,17.758,24.496,29.321,43.641,29.301h174.183c19.156,0.027,36.352-11.578,43.614-29.25l0.027-0.062l8.844-21.727l1.519-3.613
		l0.106-0.254l11.211-27.48l-0.008,0.019l5.511-13.449c39.993-20.223,73.762-39.129,81.317-43.383
		C504.098,353.151,510.086,344.295,511.379,334.232z M367.351,430.377h-0.066l-10.359,25.484c-2.312,5.598-7.785,9.266-13.832,9.266
		H168.91c-6.051,0-11.52-3.668-13.836-9.266l-10.359-25.484l-9.59-23.547c41.442,17.695,79.149,30.305,100.191,36.934
		c5.532,1.738,11.387,2.574,17.821,2.574c6.566,0,12.613-0.898,18.531-1.738l1.418-0.191c24.066-3.348,64.926-20.465,104.688-39.512
		L367.351,430.377z M253.137,427.033c-4.054,0-8.106-0.449-12.031-1.738c-22.586-7.078-68.398-22.39-116.531-44.141
		c-4.246-1.996-8.492-3.926-12.805-5.984h-0.062c-4.375-2.121-8.754-4.246-13.062-6.371c-23.164-11.582-45.942-24.515-66.086-38.734
		c-1.992-14.606,4.766-30.758,8.946-45.301l83.137,54.504l14.672,9.653l14.734,9.652l15.89,10.422l1.867,1.157l2.511-3.41
		l-1.804-1.352l-8.622-6.816l-12.226-9.652l-12.226-9.653l-94.844-74.965c-1.094-19.691-13.32-39.382-9.394-55.531
		c3.09-12.867,13.446-22.262,22.778-31.527l7.336,9.781l17.629,23.161c11.906,15.316,23.746,30.629,36.035,45.687
		c12.098,15.121,24.515,30.05,37.062,44.914c11.137,12.866,22.199,25.863,33.914,38.48c1.61,1.734,3.215,3.473,4.825,5.211
		l1.476,1.542l3.157-2.254l-1.094-1.992c-0.453-0.836-0.968-1.672-1.48-2.508c-9.203-16.023-19.176-31.66-29.02-47.234
		c-10.617-16.278-21.234-32.492-32.238-48.515c-10.809-16.086-22.004-31.914-33.203-47.742L85.39,172.158l-8.625-11.706
		l-2.961-3.993c7.465-17.308,7.465-39.378,19.496-50.898c10.488-10.102,26.832-11.582,41.183-14.992h0.063l0.066,0.195
		l86.93,239.817l0.706,2.058l4.055-1.289l-0.578-2.059L156.492,83.686l-0.644-2.317c14.863-10.879,26.062-28.832,41.117-32.946
		c3.926-1.094,7.914-1.546,11.84-1.546c12.805,0,25.094,4.695,35.262,7.594l0.129,2.125l9.653,268.321l0.062,2.187h4.246
		l0.062-2.187l9.719-268.321l0.066-2.125c10.168-2.898,22.453-7.594,35.195-7.594c3.988,0,7.914,0.453,11.902,1.546
		c15.058,4.114,26.316,22.066,41.054,32.946l-0.644,2.317l-69.297,245.605l-0.516,2.059l4.05,1.289l0.707-2.058L377.39,90.764
		l0.062-0.195c14.348,3.348,30.762,4.89,41.246,14.992c12.355,11.906,12.035,34.813,20.141,52.25l-0.645-1.352l-2.957,3.993
		l-8.625,11.706l-16.985,23.618c-11.199,15.828-22.461,31.656-33.207,47.742c-11,16.023-21.617,32.238-32.234,48.515
		c-9.847,15.574-19.82,31.211-29.019,47.234c-0.516,0.836-1.031,1.672-1.481,2.508l-1.094,1.992l3.153,2.254l1.48-1.542
		c1.61-1.738,3.219-3.477,4.828-5.211c11.707-12.617,22.778-25.614,33.91-38.48c12.547-14.864,24.965-29.794,37.058-44.914
		c12.293-15.058,24.133-30.371,36.035-45.687l17.629-23.161l7.336-9.781c9.332,9.203,19.692,18.66,22.848,31.527
		c4.179,17.18-9.977,38.351-9.461,59.262c0,1.031,0.066,2.062,0.191,3.09c-0.191-1.027-0.258-2.058-0.258-3.09
		c-0.062-1.222,0-2.508,0.066-3.73l-94.844,74.965l-12.23,9.653l-12.222,9.652l-8.626,6.816l-1.797,1.352l2.508,3.41l1.863-1.157
		l15.894-10.422l14.734-9.652l14.672-9.653l83.133-54.504c4.25,14.481,10.942,30.695,9.012,45.301c0,0-28.055,15.828-64.477,34.618
		c-4.313,2.187-8.683,4.441-13.191,6.691c-4.309,2.187-8.622,4.379-13.062,6.566c-44.074,21.942-92.977,43.816-118.391,47.355
		C264.59,426.135,258.801,427.033,253.137,427.033z"/>
	<path class="st0" d="M495.278,358.072c-0.012,0.008-0.031,0.015-0.043,0.023c-0.004,0-0.004,0.004-0.004,0.004L495.278,358.072z"/>
</g>
</svg>
