<?xml version="1.0" encoding="utf-8"?>
<!-- Generator: Adobe Illustrator 24.1.1, SVG Export Plug-In . SVG Version: 6.00 Build 0)  -->
<svg version="1.1" id="_x31_0" xmlns="http://www.w3.org/2000/svg" xmlns:xlink="http://www.w3.org/1999/xlink" x="0px" y="0px"
	 viewBox="0 0 512 512" style="enable-background:new 0 0 512 512;" xml:space="preserve">
<style type="text/css">
	.st0{fill:#374149;}
</style>
<g>
	<path class="st0" d="M122.652,258.343l-1.121-19.121l-55.121-5.118L33.93,270.902c-3.442,3.922-3.121,9.922,0.801,13.363
		c1.84,1.598,4.078,2.32,6.32,2.32c2.559,0,5.2-1.043,7.039-3.203l26.082-29.519L122.652,258.343z"/>
	<path class="st0" d="M125.531,296.984c-0.641-3.039-0.961-6.082-1.121-9.281l-0.641-10.399l-46.641,19.36l-11.438,47.679
		c-1.281,5.122,1.918,10.242,6.961,11.442c0.719,0.16,1.52,0.238,2.238,0.238c4.238,0,8.16-2.879,9.199-7.199l9.199-38.398
		l32.242-13.363V296.984z"/>
	<path class="st0" d="M484.57,286.585c2.238,0,4.48-0.722,6.238-2.32c3.922-3.442,4.32-9.442,0.882-13.363l-32.48-36.798
		l-68.879,6.398l-1.121,19.122l62.16-5.762l26.078,29.519C479.371,285.542,481.93,286.585,484.57,286.585z"/>
	<path class="st0" d="M441.531,348.824c1.039,4.32,4.957,7.199,9.199,7.199c0.719,0,1.442-0.078,2.238-0.238
		c5.043-1.199,8.16-6.32,6.961-11.442l-11.519-47.679l-59.922-24.879l-0.957,15.84c-0.082,1.359-0.16,2.718-0.32,4.078
		l45.121,18.722L441.531,348.824z"/>
	<path class="st0" d="M505.652,55.073L434.817,98.16l-17.918-50.957c-1.301-3.707-6.492-3.848-7.996-0.219l-20.961,50.625
		c-8.805,21.258-2.653,45.848,14.843,59.762c-0.019,0.032-0.034,0.063-0.054,0.094c-6.16,8.801-14.32,16-23.84,21.121
		c-1.199,0.637-2.402,1.278-3.679,1.84c-1.199,0.558-2.481,1.117-3.762,1.598c-10.798-13.918-28.078-22.961-47.68-22.961h-7.519v-4
		v-4v-19.199c1.679,0.32,3.441,0.402,5.199,0.402c22.961,0,41.601-18.641,41.601-41.602c0-23.039-18.64-41.68-41.601-41.68
		c-23.039,0-41.68,18.641-41.68,41.68c0,14,6.961,26.48,17.602,33.922v26.477v4v4h-47.68v-4v-4v-24.958
		c12-7.202,20-20.402,20-35.441c0-23.039-18.641-41.68-41.679-41.68c-22.962,0-41.602,18.641-41.602,41.68
		c0,22.961,18.64,41.602,41.602,41.602c0.957,0,1.839,0,2.718-0.161v18.958v4v4h-42.48c-19.598,0-36.879,9.042-47.68,22.961
		c-4,5.039-7.121,10.641-9.121,16.718c-2.321,6.481-3.36,13.602-3.039,20.883l1.199,20.32l1.121,19.199l0.879,14.879l0.801,13.199
		c0.078,2.242,0.32,4.481,0.718,6.641c4.641,27.762,29.442,48.64,59.122,48.64H319.77c31.602,0,57.602-23.679,59.602-54.078
		c0.078-0.402,0.16-0.801,0.16-1.203l1.121-18.719l0.477-8.078l1.203-19.203l1.278-21.598c0.32-7.282-0.719-14.402-3.039-20.883
		c1.199-0.558,2.398-1.117,3.602-1.679c1.199-0.559,2.398-1.199,3.598-1.84c12.875-6.875,23.824-16.867,31.82-29.016
		c24.258,7.172,50.742-5.058,60.629-28.937L512,60.515C506.379,55.699,511.27,59.89,505.652,55.073z M159.371,282.984l-1.199-19.922
		l-0.16-2.719l-1.122-17.602l-0.32-5.758c-0.398-7.199,8-11.519,13.602-6.961l91.039,73.68c6.078,4.882,2.558,14.8-5.282,14.8
		h-60.558c-19.282,0-34.961-14.16-35.84-32.398L159.371,282.984z M228.012,66.023c13.598,0,24.64,11.039,24.64,24.641
		c0,4.16-1.121,8.16-2.961,11.679c-3.762,6.879-10.722,11.84-18.961,12.719c-0.879,0.082-1.762,0.16-2.718,0.16
		c-13.524,0-24.562-11.039-24.562-24.558C203.45,77.062,214.488,66.023,228.012,66.023z M321.45,115.222
		c-1.758,0-3.52-0.16-5.199-0.558c-9.442-2-16.801-9.36-18.879-18.801c-0.402-1.68-0.562-3.438-0.562-5.199
		c0-13.602,11.042-24.641,24.641-24.641c13.519,0,24.562,11.039,24.562,24.641C346.012,104.183,334.969,115.222,321.45,115.222z
		 M316.488,221.382v36.883c0,2-1.598,3.598-3.598,3.598s-3.602-1.598-3.602-3.598v-29.122c-2.398,2.16-5.038,4.078-7.839,5.68
		v13.359c0,2-1.68,3.602-3.68,3.602c-1.918,0-3.598-1.602-3.598-3.602v-9.68c-4.321,1.762-9.043,2.962-13.922,3.52
		c-25.36,2.961-48.641-12.398-56.641-35.52c-2-5.762,1.679-11.918,7.762-12.558l85.438-10c6-0.641,11.042,4.481,10.402,10.481
		C326.25,204.425,322.41,213.703,316.488,221.382z"/>
	<path class="st0" d="M92.426,166.203c8,12.152,18.954,22.144,31.746,29.019c2.078-5.918,5.039-11.519,8.957-16.637
		c-9.519-5.121-17.679-12.32-23.84-21.121c-0.023-0.035-0.038-0.07-0.062-0.102c17.489-13.918,23.633-38.504,14.832-59.754
		l-20.961-50.625c-1.5-3.629-6.695-3.488-7.996,0.219L77.187,98.16L6.348,55.073C0.73,59.89,5.621,55.699,0,60.515l31.782,76.754
		C41.672,161.152,68.164,173.386,92.426,166.203z"/>
	<polygon class="st0" points="136.082,399.308 136.082,467.66 149.426,467.66 149.426,447.116 158.258,436.554 175.824,467.66 
		191.379,467.66 167.09,426.476 189.746,399.308 173.519,399.308 149.426,429.066 149.426,399.308 	"/>
	<path class="st0" d="M210.488,467.624h13.922l4.16-12.082h24.238l4.082,12.082h13.918l-24.958-68.321h-10.48L210.488,467.624z
		 M232.25,444.343l8.64-24.878l8.398,24.878H232.25z"/>
	<polygon class="st0" points="303.278,399.308 291.371,399.308 291.371,467.66 304.715,467.66 304.715,425.706 331.785,467.66 
		343.691,467.66 343.691,399.308 330.348,399.308 330.348,441.164 	"/>
	<rect x="380.961" y="399.308" class="st0" width="13.344" height="68.352"/>
	<path class="st0" d="M228.012,100.503c0.957,0,1.839-0.16,2.718-0.48c4.16-1.121,7.199-4.961,7.199-9.359
		c0-5.442-4.48-9.922-9.918-9.922c-5.442,0-9.84,4.481-9.84,9.922C218.172,96.023,222.57,100.503,228.012,100.503z"/>
	<path class="st0" d="M321.45,80.741c-5.438,0-9.918,4.481-9.918,9.922c0,3.441,1.918,6.558,4.719,8.32
		c1.519,0.961,3.281,1.519,5.199,1.519c5.441,0,9.839-4.48,9.839-9.839C331.289,85.222,326.89,80.741,321.45,80.741z"/>
</g>
</svg>
