<?xml version="1.0" encoding="utf-8"?>
<!-- Generator: Adobe Illustrator 18.1.1, SVG Export Plug-In . SVG Version: 6.00 Build 0)  -->
<!DOCTYPE svg PUBLIC "-//W3C//DTD SVG 1.1//EN" "http://www.w3.org/Graphics/SVG/1.1/DTD/svg11.dtd">
<svg version="1.1" id="_x31_0" xmlns="http://www.w3.org/2000/svg" xmlns:xlink="http://www.w3.org/1999/xlink" x="0px" y="0px"
	 viewBox="0 0 512 512" style="enable-background:new 0 0 512 512;" xml:space="preserve">
<style type="text/css">
	.st0{fill:#374149;}
</style>
<g>
	<path class="st0" d="M450.692,0.156l-0.023,0.004V0L67.887,55.547l-5.442-0.973l-0.954-0.199v0.027l-0.16-0.027v2.121v351.215
		l-0.023,51.867l0.023-0.004v0.16l6.555-0.949l297,53.043c6.676,1.187,12.809-3.946,12.809-10.726v-87.278l72.973-10.586V50.676
		L450.692,0.156z M137.308,213.852l0.07-0.102l0.058,0.195l17.153-23.52l9.465,1.528l0.015,0.003l-8.449,47.458l-0.094,0.511
		l-9.559-1.863l4.946-27.777l-12.461,16.332l-6.321-1.188l-3.144-10.289l-2.649-9.16l-0.058,0.301l-0.102-0.328l-4.805,26.984
		l-0.058,0.321l-9.118-1.778l8.29-46.547l9.039,1.454l4.87,16.972L137.308,213.852z M254.219,238.668l0.039-0.222l0.117,0.25
		l5.57-31.289l10.985,1.77l0.078,0.012l-9.062,50.902l-0.102,0.554l-9.816-1.91l-16.367-35.21l-5.477,30.766l-0.035,0.179
		l-10.554-2.058l8.914-50.07l9.465,1.523l9.004,19.122L254.219,238.668z M212.629,199.782l-1.535,8.629l-24.114-4.027l-1.992,11.203
		l-0.016,0.078l0,0l-0.027,0.157l20.446,3.578h0.007l-1.531,8.61l-20.434-3.691l-2.109,11.847l24.019,4.539l-1.539,8.633
		l-33.871-6.606l8.626-48.441l33.586,5.414L212.629,199.782z M299.168,213.726l-6.062,34.059c-0.542,3.042-0.054,5.578,1.469,7.613
		c1.52,2.039,3.867,3.36,7.039,3.962c0.957,0.179,1.778,0.098,2.645,0.101c0.05,0,0.109,0.016,0.164,0.016
		c0.019,0,0.039-0.008,0.058-0.008c0.934-0.008,1.82-0.109,2.645-0.328c0.086-0.023,0.164-0.062,0.246-0.09
		c0.794-0.23,1.622-0.391,2.313-0.817c2.191-1.359,3.566-3.578,4.114-6.66l6.144-34.504l11.746,1.894l0.094,0.02l-6.254,35.125
		c-0.508,2.851-1.555,5.32-3.141,7.398c-1.582,2.078-3.523,3.734-5.836,4.969c-2.305,1.23-4.879,2.031-7.718,2.406
		c-2.829,0.371-5.782,0.254-8.852-0.344c-3.058-0.598-5.824-1.594-8.289-2.988c-2.458-1.391-4.516-3.066-6.176-5.031
		c-1.656-1.958-2.844-4.164-3.562-6.622c-0.715-2.449-0.824-5.058-0.332-7.836l6.086-34.183l11.367,1.832L299.168,213.726z
		 M368.715,109.27l-109.05-19.473L156.531,71.222l265.887-38.582v346.153l-39.351,5.71l-5.371,0.758V119.996
		C377.696,114.715,373.914,110.199,368.715,109.27z"/>
</g>
</svg>
