<?xml version="1.0" encoding="utf-8"?>
<!-- Generator: Adobe Illustrator 24.1.1, SVG Export Plug-In . SVG Version: 6.00 Build 0)  -->
<svg version="1.1" id="_x31_0" xmlns="http://www.w3.org/2000/svg" xmlns:xlink="http://www.w3.org/1999/xlink" x="0px" y="0px"
	 viewBox="0 0 512 512" style="enable-background:new 0 0 512 512;" xml:space="preserve">
<style type="text/css">
	.st0{fill:#374149;}
</style>
<g>
	<path class="st0" d="M88.285,355.176c0.008-0.004,0.024-0.008,0.035-0.016c0.004-0.003,0.012-0.003,0.016-0.007L88.285,355.176z"/>
	<path class="st0" d="M432.086,250.742c0.004-0.004,0.012-0.004,0.016-0.004c0.012-0.004,0.019-0.008,0.027-0.008L432.086,250.742z"
		/>
	<path class="st0" d="M423.527,355.078c0.012,0.004,0.02,0.012,0.027,0.015c0.012,0,0.02,0.004,0.028,0.012L423.527,355.078z"/>
	<path class="st0" d="M307.278,455.688c0,0.003-0.004,0.003-0.004,0.003c-0.004,0.004-0.008,0.008-0.012,0.012L307.278,455.688z"/>
	<path class="st0" d="M171.828,404.859c-0.004-0.007-0.004-0.019-0.004-0.027c-0.004-0.007-0.007-0.015-0.011-0.027L171.828,404.859
		z"/>
	<path class="st0" d="M120.43,455.762c0,0,0,0.004-0.004,0.004c-0.004,0.012-0.004,0.024-0.008,0.035L120.43,455.762z"/>
	<path class="st0" d="M367.508,156.746c0.004-0.004,0.008-0.004,0.008-0.008c0.003-0.004,0.003-0.004,0.003-0.004L367.508,156.746z"
		/>
	<path class="st0" d="M114.367,159.371c0.004,0.004,0.008,0.012,0.016,0.016c0.007,0.007,0.019,0.015,0.027,0.023L114.367,159.371z"
		/>
	<path class="st0" d="M203.137,412.414c0-0.004-0.004-0.008-0.004-0.012c-0.004-0.015-0.012-0.031-0.019-0.043L203.137,412.414z"/>
	<path class="st0" d="M511.934,328.75l0.004,0.046c-0.004-0.023-0.004-0.046-0.004-0.07c-1.344-15.386-4.598-29.168-10.074-41.801
		h-0.004c-3.668-8.484-8.195-15.598-13.66-21.48l-0.011-0.016c-7.192-7.695-16.422-13.273-26.497-15.637l0.004-0.007
		c-0.023-0.004-0.05-0.008-0.07-0.012c-0.023-0.008-0.046-0.015-0.066-0.023v0.011c-4.023-0.988-8.226-1.406-12.382-1.406
		c-5.59-0.004-11.317,0.773-17.07,2.382c-7.32,2-14.637,5.195-22.293,9.523l0,0c-3.539,1.922-7,3.883-10.391,5.723l-0.09,0.05
		c-1.844,1.035-3.606,2.02-5.378,3.02l-1.012-5.141l-0.035-0.153c-0.496-2.258-1.141-4.082-1.57-5.367l-0.031-0.094l-0.512-1.469
		l-0.976-2.855l-0.891-2.422l-0.07-0.188l-0.027-0.07c-1.976-4.808-3.246-9.91-4.262-14.511c-0.875-4.223-1.324-8.598-1.324-13.008
		c0-5.058,0.578-10.16,1.734-15.125l0.019-0.074c1.996-9.012,6.278-18.27,12.489-26.754c3.168-4.278,6.598-8.028,10.07-11.102
		l0.063-0.055c2.046-1.847,3.71-3.07,5.254-4.058l0.074-0.047c0.66-0.434,1.125-0.671,1.398-0.801
		c7.832-0.781,14.11-6.695,15.191-14.519l0.016-0.133c0.078-0.68,0.121-1.379,0.121-2.102c0.008-3.594-1.114-7.246-3.438-10.27
		l-0.031-0.039c-2.625-3.426-6.629-5.832-11.05-6.414l0.003-0.02c-0.046-0.007-0.09-0.004-0.14-0.011
		c-0.031-0.004-0.062-0.016-0.098-0.02v0.012c-1.262-0.18-2.516-0.293-3.766-0.293c-6.13-0.012-10.786,2.015-13.348,2.969
		l-0.141,0.05l-0.754,0.301l-0.09,0.035l-0.172,0.082c-3.758,1.664-7.325,3.625-11.192,6.125l-0.07,0.046
		c-6.301,4.172-12.18,9.168-17.867,15.176c-4.074,4.289-7.676,9.016-11.02,13.93c1.414-7.805,2.301-15.59,2.301-23.25
		c0.004-21.469-5.59-42.059-16.851-59.398c-18.43-28.442-50.157-44.738-85.898-44.684C220.23,43.282,188.5,59.578,170.07,88.02
		c-11.274,17.343-16.871,37.934-16.863,59.398c0,7.656,0.882,15.434,2.301,23.226c-3.34-4.902-6.938-9.621-11.008-13.906
		c-5.687-6.008-11.562-11.004-17.813-15.117l-0.023-0.012c-3.879-2.535-7.406-4.477-10.973-6.019l0.004-0.004l-0.98-0.454
		l-0.242-0.113l-0.258-0.098c-2.563-0.954-7.219-2.981-13.348-2.969c-1.278,0-2.554,0.109-3.84,0.301v-0.012
		c-0.027,0.004-0.05,0.012-0.074,0.016c-0.031,0.007-0.062,0.003-0.094,0.007v0.012c-8.183,1.172-14.258,8.062-14.492,16.281
		l-0.016-0.003l-0.003,0.031h0.003l-0.003,0.179c0,0,0,0.004,0,0.008l-0.012,0.386c-0.012,4.458,1.855,8.586,4.738,11.574
		c2.914,3.027,6.71,4.625,10.578,5.02c0.298,0.148,0.688,0.363,1.242,0.738l0.129,0.086l0.164,0.102
		c1.539,0.949,3.18,2.152,5.149,3.922l0.043,0.039c3.566,3.16,6.98,6.906,10.152,11.184c6.211,8.484,10.496,17.75,12.496,26.691
		l0.008,0.042c1.156,5.016,1.73,10.141,1.73,15.231c0,4.441-0.446,8.863-1.32,13.179c-1.016,4.508-2.29,9.523-4.161,13.969
		l-0.066,0.149l-0.937,2.73l0.015-0.047l-0.977,2.786l-0.031,0.078l-0.074,0.234c-0.11,0.383-0.223,0.622-0.535,1.531
		c-0.426,1.282-1.074,3.106-1.57,5.363l-1.043,5.294c-1.778-1-3.539-1.985-5.379-3.02l-0.094-0.05
		c-3.386-1.84-6.836-3.794-10.422-5.774l0.05,0.031c-7.633-4.293-14.957-7.496-22.242-9.508c-5.817-1.602-11.547-2.382-17.133-2.378
		c-4.18,0-8.398,0.422-12.477,1.406v-0.007c-0.012,0.004-0.023,0.011-0.035,0.011c-0.019,0.004-0.035,0.008-0.047,0.008v0.008
		c-9.996,2.355-19.222,7.93-26.434,15.703v-0.004c-0.011,0.011-0.019,0.023-0.031,0.035c-0.007,0.008-0.015,0.011-0.023,0.019h0.004
		c-5.473,5.832-9.985,12.918-13.637,21.293l-0.019,0.035c-5.465,12.692-8.723,26.473-10.063,41.856H0.082v0.035
		c-0.004,0.015-0.008,0.027-0.008,0.042h0.004L0,330.352c-0.012,8.367,5.851,15.781,14.27,17.562l-0.004,0.015
		c0.031,0.008,0.058,0.004,0.09,0.008c0.035,0.008,0.066,0.023,0.098,0.031l0.004-0.019c1.172,0.258,2.406,0.398,3.59,0.394
		c8.542-0.039,15.878-6.012,17.621-14.481c2.27-11.152,5.898-21.21,10.351-28.874l0.02-0.035c2.145-3.762,4.637-6.774,6.882-8.684
		c2.238-1.949,4.176-2.61,4.778-2.61l0.406-0.031l0.394-0.074l0.582-0.028c3.179-0.094,9.222,2.051,16.801,7.774l0.034,0.027
		c3.161,2.325,6.29,4.637,9.395,7.004l0.042,0.035c6.633,4.969,13.535,10.129,20.703,15.238l0.074,0.051
		c10.672,7.414,22.488,15.434,36.754,21.652l0.043,0.019c0.656,0.282,1.297,0.45,1.957,0.719c-0.054,0.008-0.109,0.015-0.164,0.023
		c-4.64,0.59-9.445,1.098-14.851,1.465l-7.894,0.527l0.05-0.004l-3.84,0.227l0.059-0.004l-1.43,0.074v0.015
		c-1.266,0.012-2.539,0.09-3.825,0.238v-0.016c-0.094,0.008-0.179,0.028-0.277,0.035c-0.028,0.004-0.055,0-0.082,0.004v0.008
		c-9.098,0.75-17.09,2.863-24.313,6.519c-10.179,5.133-18.328,14.25-22.011,25l-0.016-0.007c-0.015,0.042-0.023,0.086-0.039,0.125
		c-0.003,0.015-0.015,0.027-0.019,0.039l0.008,0.004c-2.157,6.129-2.801,12.007-2.801,17.035c0,3.609,0.32,6.804,0.676,9.386
		c0.914,6.664,2.675,13.125,5.281,20.238l0.027,0.078c4.199,11.094,9.692,21.653,17.157,33.07l0.035,0.059
		c3.531,5.27,9.418,8.457,15.832,8.476c2.828,0,5.648-0.617,8.266-1.855l0.14-0.07c4.41-2.187,7.946-6.082,9.57-10.973
		c0.672-1.992,1.016-4.07,1.012-6.137c0.004-2.828-0.641-5.652-1.887-8.246l-0.031-0.062c-4.277-8.684-7.64-17.922-9.832-26.703
		c-1.038-4.434-1.613-8.398-1.668-11.454v-0.086l-0.015-0.492c0-1.352,0.106-2.551,0.266-3.43c0.054-0.348,0.125-0.594,0.187-0.821
		c0.985-0.281,2.86-0.594,5.043-0.594l0.886,0.054l0.223,0.016h0.262l0.875,0.008l0.109,0.007l0.254,0.031l1.652,0.086l3.918,0.297
		l0.082,0.004l8.594,0.457c5.742,0.313,10.938,0.39,15.84,0.39h1.954h0.066c6.777-0.062,14.102-0.422,21.636-1.046
		c0.532,2.246,1.184,4.504,1.973,6.785c2.626,7.774,6.328,14.219,9.622,19.73l0.054,0.094c6.566,10.633,14.012,20.496,23.254,31.046
		l0.074,0.09c3.461,3.832,8.414,6.168,13.722,6.168c4.149,0.008,8.266-1.402,11.578-4.078l0.051-0.039
		c4.418-3.633,6.691-8.938,6.683-14.199c0.008-4.062-1.355-8.207-4.125-11.598c-6.734-8.211-12.18-17.149-15.77-25.594l-0.027-0.055
		c-1.79-4.094-3.047-8.371-3.688-12.148c-0.175-1.106-0.246-2.062-0.246-2.832c0-0.676,0.058-1.176,0.117-1.562
		c0.23-0.215,0.578-0.481,1.051-0.805c0.754-0.286,1.66-0.641,2.984-1.168c4.695-1.875,12.293-4.969,13.602-5.5
		c4.934-1.524,10.942-3.524,17.989-7.297l0.058-0.031c2.144-1.168,4.617-2.672,7.175-4.563c2.532,1.875,4.973,3.383,7.141,4.563
		l0.094,0.05c7.176,3.801,13.238,5.801,18.199,7.328l2.7,0.95l0.503,0.175l0.074,0.016c0.359,0.121,1.317,0.453,2.622,0.957
		c2.281,0.875,5.476,2.203,8.129,3.574c1.32,0.68,2.504,1.375,3.285,1.926l0.176,0.137c0.039,0.375,0.086,0.778,0.082,1.305
		c0,0.782-0.07,1.758-0.234,2.863c-0.64,3.699-1.898,7.969-3.664,11.95l-0.09,0.191l0.039-0.078
		c-3.594,8.512-9.039,17.446-15.684,25.578l0.008-0.016c-2.797,3.398-4.234,7.586-4.226,11.73
		c-0.019,5.094,2.172,10.234,6.336,13.813l0.054,0.043c3.226,2.734,7.426,4.414,11.942,4.414c5.282-0.015,10.282-2.254,13.805-6.27
		c9.238-10.546,16.676-20.398,23.16-30.874l0.074-0.118c3.343-5.637,7.05-12.082,9.672-19.914h0.004
		c0.003-0.012,0.007-0.02,0.011-0.031c0.004-0.016,0.012-0.028,0.016-0.043h-0.004c0.774-2.246,1.418-4.461,1.945-6.664
		c7.508,0.625,14.798,0.984,21.566,1.046h0.07h2.035c4.969,0,10.094-0.078,15.77-0.39l8.426-0.449l0.126-0.012l4.191-0.293
		l1.282-0.074l0,0l1.558-0.07l0.254-0.012l0.18-0.019l0.738-0.039c2.304-0.015,4.234,0.324,5.21,0.637
		c0.203,0.832,0.477,2.386,0.442,4.211l-0.004,0.582c-0.054,3.07-0.625,7.02-1.738,11.516l-0.004,0.023
		c-2.113,8.684-5.484,17.934-9.679,26.469l-0.031,0.058c-1.301,2.703-1.95,5.61-1.946,8.477c-0.019,6.172,3.031,12.25,8.516,15.84
		l0.07,0.043c3.023,1.941,6.617,3.074,10.386,3.074c6.406-0.019,12.297-3.206,15.824-8.476l0.039-0.059
		c7.461-11.418,12.953-21.969,17.145-32.98l0.046-0.118c2.598-7.172,4.356-13.613,5.27-20.203l0.008-0.058
		c0.336-2.554,0.652-5.726,0.652-9.32c0.004-5.086-0.66-11.035-2.851-17.266h0.008c-0.012-0.027-0.02-0.055-0.031-0.082
		c-0.012-0.035-0.02-0.066-0.031-0.102l-0.008,0.004c-3.629-10.637-11.801-19.726-22.086-24.91
		c-7.203-3.648-15.27-5.762-24.629-6.57l-0.102-0.008c-1.011-0.074-2.277-0.141-3.609-0.153v-0.007l-1.356-0.074l-4.035-0.226
		l-7.762-0.52c-5.316-0.367-10.129-0.875-14.766-1.465c-0.054-0.008-0.11-0.015-0.164-0.023c0.656-0.27,1.293-0.438,1.953-0.719
		l0.043-0.019c14.266-6.218,26.082-14.242,36.703-21.668l0.019-0.012c7.262-5.125,14.172-10.293,20.805-15.262l0.043-0.035
		c3.11-2.367,6.238-4.679,9.394-7.004l0.039-0.027c7.547-5.699,13.566-7.843,16.758-7.766l1.164,0.051
		c0.848,0.05,2.79,0.762,5.016,2.679c2.254,1.906,4.718,4.883,6.824,8.594l0.039,0.066c4.519,7.746,8.152,17.813,10.426,28.833
		l0.008-0.004c1.649,8.441,9.031,14.609,17.606,14.59h0.375h0.457l1.054-0.129l-0.004-0.024c9.254-0.941,16.126-8.66,16.145-17.797
		l-0.054-1.472L511.934,328.75z M491.121,330.797l-0.007-0.054v-0.016c-0.618-2.945-1.329-5.906-2.145-8.839
		c-0.43-1.551-0.946-3.031-1.43-4.543c-0.43-1.359-0.817-2.73-1.293-4.066c-0.618-1.715-1.329-3.34-2.012-4.988
		c-0.446-1.07-0.84-2.176-1.32-3.223c-1.219-2.668-2.531-5.234-3.946-7.672l0,0c0.004,0.004,0.008,0.012,0.012,0.016l-0.008-0.016
		l1.414-0.738l-0.011-0.024l-1.41,0.75l-0.023-0.035c0.008,0.011,0.015,0.023,0.019,0.035l0,0c-0.054-0.094-0.121-0.168-0.176-0.258
		c-1.289-2.226-2.718-4.339-4.254-6.3c-0.137-0.168-0.262-0.352-0.398-0.52c-1.614-2-3.351-3.805-5.187-5.386
		c-0.039-0.035-0.074-0.09-0.122-0.126c-0.019-0.019-0.046-0.034-0.07-0.054c-0.82-0.699-1.671-1.316-2.531-1.914
		c-0.152-0.106-0.293-0.231-0.445-0.333c-0.836-0.558-1.695-1.023-2.555-1.472c-0.246-0.129-0.476-0.286-0.726-0.406
		c-0.836-0.394-1.687-0.695-2.546-0.981c-0.317-0.109-0.618-0.258-0.942-0.351c-0.485-0.137-0.985-0.184-1.473-0.282
		c-0.73-0.152-1.446-0.351-2.211-0.422l-0.172-0.02l-1.882-0.078l-0.164-0.008h-0.168c-0.012,0-0.023,0.004-0.035,0.004
		c-2.012,0.004-4.043,0.278-6.078,0.75c-0.137,0.032-0.274,0.047-0.41,0.078c-1.766,0.438-3.535,1.062-5.297,1.782
		c-0.602,0.246-1.207,0.496-1.809,0.773c-1.618,0.742-3.226,1.59-4.817,2.516c-0.363,0.211-0.726,0.398-1.094,0.621
		c-2.102,1.274-4.183,2.68-6.211,4.172c-3.363,2.485-6.726,5.016-10.094,7.535c-6.457,4.844-13.062,9.782-19.922,14.618l0.023-0.016
		c-5.211,3.649-10.535,7.297-16.129,10.726c-5.61,3.418-11.527,6.633-17.953,9.45c-0.91,0.39-1.902,0.687-2.836,1.062
		c-2.562,1.015-5.126,2.039-7.606,2.809c-1.332,0.414-2.77,0.672-4.137,1.031c-2.098,0.546-4.207,1.164-6.285,1.546
		c-2.906,0.539-5.774,0.906-8.528,1.047c-1.863,0.133-3.73,0.258-5.621,0.258c-3.012,0-6.023-0.148-9.035-0.527
		c-2.336-0.301-4.668-0.676-6.926-1.129c-4.29-0.902-8.434-2.11-12.422-3.614c-1.054-0.301-2.034-0.754-3.015-1.129
		c0,0-3.988-1.734-4.817-2.035l-0.378-0.074c-0.301,0-0.454,0.227-0.454,0.528v0.074c0,0.528,0.301,1.203,0.832,1.962
		c1.45,2.121,4.106,4.617,7.126,7.254l-7.262,0.324l12.218,3.954c4.5,3.886,9.535,8.019,14.043,13.312
		c4.742,5.422,9.187,12.726,10.242,20.633c0.149,0.902,0.301,1.805,0.301,2.633c0.149,1.356,0.227,2.637,0.227,3.914
		c0,0.312-0.047,0.61-0.059,0.914l-0.289,3.039c-0.301,3.164-1.117,6.649-2.481,10.606l-0.027,0.078
		c-0.766,2.301-1.781,4.438-2.789,6.578c-1.695,3.582-3.523,7.043-5.5,10.336c-6.394,10.332-13.61,19.562-21.402,28.566
		c-0.106,0.122-0.191,0.234-0.301,0.356l-0.012,0.011c-0.32,0.352-0.695,0.622-1.098,0.805c-0.434,0.195-0.91,0.309-1.355,0.301
		c-0.75,0-1.504-0.278-2.18-0.832c-0.343-0.305-0.578-0.637-0.754-0.992c-0.133-0.282-0.187-0.59-0.242-0.894
		c-0.015-0.114-0.062-0.215-0.066-0.332c-0.019-0.274,0.031-0.551,0.078-0.821c0.031-0.148,0.027-0.293,0.078-0.434l0,0
		c0.129-0.363,0.328-0.722,0.617-1.078l0.012-0.012l0.042-0.023c7.157-8.813,13.481-18.75,17.848-29.141
		c1.973-4.473,3.332-9.149,4.27-13.68c0.125-0.606,0.336-1.234,0.438-1.828l0.004-0.031c0.007-0.039,0.023-0.082,0.031-0.121
		c0.035-0.278,0.023-0.535,0.05-0.809c0.199-1.535,0.348-3.031,0.348-4.402c0-0.148-0.027-0.27-0.031-0.418
		c-0.031-1.762-0.234-3.332-0.562-4.813c-0.02-0.078-0.012-0.172-0.032-0.25c-0.062-0.503-0.266-0.898-0.402-1.347
		c-0.114-0.363-0.161-0.75-0.301-1.11l-0.122-0.301c-0.035-0.078-0.046-0.179-0.078-0.254c-0.02-0.031-0.051-0.066-0.066-0.102
		l-0.028-0.058l-0.414-0.626c-0.027-0.035-0.047-0.054-0.074-0.09c-0.114-0.16-0.187-0.32-0.32-0.481
		c-0.196-0.289-0.508-0.523-0.727-0.8c-0.254-0.294-0.507-0.59-0.766-0.848c-1.515-1.672-3.301-3.203-5.511-4.453
		c-3.566-2.094-7.969-3.79-12.852-5.406c-0.312-0.118-0.66-0.25-0.93-0.348l-0.191-0.066c-0.058-0.046-0.121-0.062-0.18-0.125
		c-0.453-0.149-0.98-0.301-1.43-0.454c-0.41-0.14-0.836-0.277-1.246-0.414l-1.462-0.516l-0.156-0.054l-0.121-0.035
		c-0.402-0.125-0.813-0.262-1.215-0.386c-3.722-1.23-7.703-2.582-12.222-4.778c-0.246-0.121-0.492-0.238-0.742-0.359
		c-0.504-0.246-1.023-0.489-1.512-0.758c-0.222-0.122-0.465-0.278-0.691-0.402c-1-0.563-2.008-1.184-3.023-1.856
		c-0.43-0.281-0.863-0.586-1.301-0.902c-1.078-0.773-2.172-1.691-3.278-2.683c-1.32-1.215-2.644-2.562-3.98-4.246
		c-0.754-0.98-1.43-2.11-2.031-3.312c-0.676,1.202-1.356,2.332-2.11,3.312c-1.02,1.29-2.039,2.398-3.051,3.402l-0.183,0.176
		c-1.442,1.41-2.894,2.554-4.344,3.578c-0.183,0.129-0.363,0.254-0.542,0.374c-1.395,0.95-2.798,1.79-4.188,2.555
		c-0.984,0.523-1.89,0.945-2.816,1.39c-4.234,2.004-8.012,3.313-11.543,4.48c-0.43,0.134-0.867,0.282-1.297,0.414l-0.321,0.098
		l-0.308,0.125c0,0-0.106,0.047-0.126,0.051c-0.742,0.246-1.5,0.496-2.226,0.746c-0.449,0.153-0.98,0.305-1.434,0.454
		c-0.07,0.078-0.148,0.078-0.222,0.152c-5.301,1.692-9.926,3.469-13.718,5.657l-0.078,0.027l-0.094,0.054
		c-0.035,0.023-0.078,0.035-0.114,0.055c-0.062,0.038-0.106,0.086-0.168,0.125l-0.398,0.242c-1.012,0.64-2.012,1.355-2.981,2.148
		c-0.167,0.141-0.359,0.278-0.523,0.422c-0.945,0.829-1.82,1.805-2.633,2.918c-0.066,0.086-0.164,0.156-0.226,0.246
		c-0.195,0.234-0.313,0.469-0.465,0.707c-0.039,0.055-0.078,0.098-0.118,0.153l-0.098,0.164c-0.062,0.11-0.164,0.222-0.218,0.332
		c-0.027,0.066-0.039,0.152-0.066,0.218l-0.114,0.27c-0.187,0.461-0.25,0.957-0.394,1.426c-0.106,0.375-0.278,0.688-0.332,1.098
		c-0.012,0.043-0.008,0.098-0.019,0.145c-0.371,1.625-0.61,3.324-0.626,5.282c0,1.343,0.161,2.816,0.36,4.316
		c0.035,0.324,0.015,0.625,0.062,0.95c0.66,3.762,1.816,7.656,3.21,11.5c0.508,1.41,0.942,2.82,1.547,4.218
		c0.508,1.191,1.129,2.383,1.695,3.578c4.242,9.058,9.824,17.734,16.133,25.504l0.07,0.035c0.019,0.019,0.035,0.042,0.051,0.066
		c0.461,0.562,0.664,1.238,0.687,1.961c0.004,0.062,0.023,0.125,0.019,0.187c-0.011,0.324-0.105,0.625-0.203,0.926
		c-0.058,0.165-0.074,0.344-0.156,0.5c-0.207,0.371-0.488,0.711-0.847,0.993c-0.055,0.046-0.122,0.062-0.18,0.105
		c-0.551,0.371-1.141,0.637-1.852,0.645c-0.866,0-1.785-0.371-2.542-1.203c-0.043-0.05-0.082-0.098-0.129-0.152
		c-7.778-8.977-14.969-18.188-21.36-28.485c-0.062-0.098-0.129-0.187-0.187-0.285c-2.453-4.094-4.691-8.422-6.641-13
		c-0.527-1.262-1.168-2.457-1.613-3.778l-0.016-0.054c-1.359-3.926-2.176-7.504-2.484-10.68l-0.278-2.902
		c-0.012-0.347-0.062-0.691-0.062-1.05c0-1.278,0.078-2.558,0.222-3.914c0-0.828,0.157-1.73,0.301-2.633
		c1.055-7.906,5.5-15.21,10.242-20.633c4.558-5.351,9.652-9.511,14.187-13.434l11.75-3.824l-6.958-0.313
		c3.024-2.648,5.696-5.148,7.145-7.273c0.531-0.758,0.832-1.434,0.832-1.962v-0.074c0-0.301-0.152-0.528-0.453-0.528l-0.379,0.074
		c-0.824,0.301-4.812,2.035-4.812,2.035c-0.985,0.375-1.962,0.828-3.016,1.129c-3.988,1.504-8.207,2.786-12.574,3.614
		c-2.183,0.527-4.519,0.828-6.777,1.129c-3.008,0.379-6.02,0.527-9.035,0.527c-1.926,0-3.829-0.121-5.723-0.262
		c-2.679-0.141-5.523-0.508-8.308-1.035l-0.059-0.012c-2.492-0.457-5-1.148-7.504-1.832c-0.976-0.269-2.007-0.441-2.965-0.742
		c-2.453-0.758-4.988-1.774-7.523-2.774c-0.961-0.383-1.984-0.691-2.93-1.098c-12.875-5.649-23.715-12.875-34.106-20.18
		c-2.39-1.691-4.683-3.418-7.023-5.129c-4.191-3.07-8.414-6.141-12.469-9.183c-3.496-2.618-6.988-5.242-10.473-7.821
		c-2.05-1.508-4.156-2.93-6.285-4.214c-0.325-0.199-0.649-0.363-0.977-0.555c-1.625-0.945-3.262-1.808-4.91-2.562
		c-0.578-0.266-1.164-0.508-1.742-0.742c-1.777-0.726-3.558-1.359-5.335-1.793c-0.126-0.031-0.254-0.042-0.383-0.074
		c-2.039-0.472-4.074-0.746-6.086-0.75c-0.008,0-0.02-0.004-0.031-0.004c-0.364-0.004-1.157,0.031-2.047,0.121
		c-0.176,0.016-0.351,0.016-0.516,0.031c-0.179,0.016-0.359,0.078-0.538,0.098c-0.086,0.015-0.153,0.011-0.242,0.031l0.004,0.011
		c-0.961,0.129-1.922,0.29-2.867,0.562c-0.383,0.11-0.738,0.29-1.114,0.418c-0.742,0.262-1.488,0.512-2.218,0.855
		c-0.59,0.282-1.145,0.629-1.711,0.957c-0.512,0.294-1.031,0.559-1.531,0.891c-0.606,0.402-1.176,0.859-1.758,1.305
		c-0.41,0.32-0.836,0.605-1.238,0.945c-0.054,0.043-0.114,0.082-0.168,0.129c-0.098,0.082-0.18,0.203-0.278,0.286
		c-1.726,1.515-3.371,3.218-4.902,5.11c-0.234,0.285-0.457,0.598-0.683,0.894c-1.336,1.726-2.582,3.57-3.73,5.5
		c-0.172,0.301-0.394,0.539-0.57,0.843l0.015-0.023c-0.007,0.008-0.007,0.016-0.015,0.027c0,0,0,0.004-0.004,0.008v-0.004
		c-2.778,4.813-5.176,10.141-7.211,15.844c-0.934,2.61-1.758,5.27-2.515,7.946c-0.043,0.16-0.102,0.312-0.145,0.476
		c-0.832,2.989-1.566,5.992-2.191,8.992v0.149c-0.145,0.683-0.516,1.238-0.981,1.656c-0.05,0.043-0.094,0.082-0.144,0.122
		c-0.497,0.386-1.094,0.637-1.734,0.637l-0.606-0.078c-0.746-0.149-1.352-0.562-1.766-1.118c-0.043-0.054-0.035-0.136-0.07-0.195
		c-0.344-0.535-0.566-1.164-0.496-1.847c0.137-1.688,0.382-3.348,0.582-5.02c0.192-1.586,0.34-3.222,0.574-4.758
		c0.258-1.641,0.621-3.266,0.942-4.898c0.285-1.492,0.539-3.016,0.878-4.465c0.653-2.782,1.43-5.551,2.305-8.301
		c0.066-0.218,0.118-0.446,0.188-0.66c0.988-3.047,2.121-6.078,3.414-9.094c1.184-2.707,2.551-5.371,4.102-7.973
		c0.199-0.344,0.398-0.715,0.606-1.047c0.551-0.886,1.172-1.75,1.782-2.617c0.414-0.586,0.812-1.211,1.242-1.766
		c0.192-0.25,0.414-0.489,0.61-0.738c0.813-1.012,1.633-2.004,2.488-2.914l0.051-0.054c2.633-2.859,5.656-5.297,8.871-7.219
		c0.027-0.011,0.05-0.023,0.082-0.038c1.531-0.91,3.102-1.692,4.699-2.352c1.703-0.695,3.461-1.27,5.286-1.668
		c3.011-0.754,6.023-1.054,9.039-1.054c2.202,0,4.39,0.172,6.538,0.469c2.149,0.305,4.34,0.75,6.59,1.371
		c0.125,0.035,0.262,0.086,0.386,0.121c3.246,0.953,6.398,2.11,9.414,3.442c0.09,0.042,0.187,0.09,0.277,0.129
		c3.098,1.379,6.066,2.902,8.863,4.484c5.742,3.118,11.434,6.305,17.102,9.454c3.098,1.73,6.231,3.511,9.309,5.164l11.95,6.406
		l-0.02-0.294c0.793,0.395,1.582,0.809,2.394,1.18c7.754,3.84,15.512,7.152,23.118,9.262c5.867,1.657,11.515,2.485,16.867,2.485
		c3.988,0,7.902-0.454,11.668-1.508c1.129-0.301,2.258-0.676,3.386-1.054c2.203-0.758,4.352-1.734,6.543-2.926
		c0.226-0.113,0.453-0.191,0.68-0.308h0.007c0.008-0.004,0.016-0.012,0.028-0.016c1.918-1.004,3.835-2.141,5.754-3.414
		c0.106-0.066,0.211-0.117,0.316-0.187c0.196-0.129,0.379-0.305,0.574-0.442c2.274-1.554,4.551-3.339,6.84-5.273
		c0.313-0.266,0.621-0.543,0.934-0.817c1.012-0.879,2.027-1.699,3.047-2.652l3.953-3.707l-2.254-4.922
		c-0.867-1.898-1.734-3.706-2.473-5.445l-0.055-0.133l-0.066-0.141c-0.598-1.266-1.195-2.539-1.863-3.95l1.473-0.629l-1.73,0.07
		l-0.066-0.141l-0.141-0.37c12.402-3.176,21.645-14.531,21.645-27.918c0-15.886-12.953-28.914-28.836-28.914
		c-6.176,0-11.89,1.957-16.629,5.266c-2.711-6.008-5.684-12.516-8.871-19.692l-0.012-0.023c-0.742-1.652-1.277-3.328-1.941-4.988
		c-1.051-2.622-2.176-5.25-3.039-7.86c-0.95-2.874-1.649-5.75-2.379-8.625c-0.351-1.359-0.812-2.734-1.113-4.086
		c-0.77-3.531-1.301-7.043-1.746-10.543c-0.086-0.676-0.25-1.367-0.32-2.043c-0.383-3.472-0.52-6.902-0.578-10.316
		c-0.012-0.73-0.106-1.488-0.106-2.211c0.004-0.938,0.066-1.859,0.094-2.793c0.09-2.942,0.278-5.848,0.602-8.703
		c0.074-0.641,0.11-1.289,0.191-1.926c0.458-3.39,1.11-6.703,1.891-9.95c0.144-0.609,0.281-1.218,0.441-1.824
		c0.867-3.305,1.895-6.535,3.094-9.66c0.148-0.39,0.312-0.774,0.469-1.16c2.434-6.074,5.546-11.734,9.183-16.985
		c0.961-1.375,1.961-2.703,2.992-4.004c1.141-1.453,2.325-2.863,3.559-4.23c1.238-1.367,2.523-2.687,3.847-3.961
		c1.172-1.133,2.387-2.222,3.633-3.285c1.543-1.313,3.118-2.582,4.758-3.774c1.165-0.852,2.371-1.653,3.59-2.442
		c1.84-1.195,3.707-2.351,5.648-3.402c1.168-0.629,2.379-1.191,3.582-1.77c2.09-1,4.195-1.976,6.382-2.812
		c1.254-0.477,2.566-0.864,3.856-1.29c2.222-0.73,4.441-1.461,6.75-2.023c1.614-0.39,3.309-0.645,4.973-0.953
		c2.082-0.395,4.141-0.84,6.289-1.094c3.875-0.453,7.844-0.738,11.958-0.738c4.094,0,8.054,0.285,11.922,0.738
		c2.215,0.262,4.348,0.723,6.504,1.13c1.57,0.297,3.172,0.534,4.695,0.906c2.414,0.586,4.738,1.344,7.05,2.114
		c1.168,0.386,2.36,0.738,3.5,1.172c2.305,0.878,4.528,1.902,6.723,2.965c1.07,0.519,2.152,1.019,3.187,1.578
		c2.07,1.114,4.058,2.34,6.012,3.618c1.082,0.711,2.156,1.422,3.199,2.18c1.758,1.273,3.453,2.636,5.11,4.05
		c1.121,0.965,2.218,1.95,3.281,2.969c1.43,1.371,2.813,2.793,4.145,4.27c1.137,1.266,2.23,2.57,3.285,3.906
		c1.114,1.398,2.195,2.832,3.223,4.316c1.629,2.359,3.23,4.742,4.621,7.278c0.019,0.035,0.043,0.07,0.062,0.106
		c1.614,2.949,3.012,6.046,4.289,9.214c0.219,0.535,0.446,1.062,0.649,1.602c1.148,3,2.125,6.094,2.965,9.254
		c0.203,0.781,0.382,1.578,0.57,2.37c0.734,3.086,1.355,6.223,1.793,9.438c0.118,0.871,0.168,1.766,0.266,2.645
		c0.274,2.543,0.442,5.121,0.531,7.73c0.035,1.141,0.11,2.274,0.11,3.43c0,0.157-0.016,0.317-0.016,0.469
		c-0.035,8.035-0.934,16.278-2.758,24.578c-0.082,0.363-0.214,0.73-0.301,1.094c-0.879,3.855-1.914,7.718-3.191,11.582
		c-0.461,1.398-1.11,2.808-1.625,4.21c-1.055,2.852-2.059,5.707-3.325,8.543l-0.007,0.019c-1.114,2.508-2.165,4.813-3.231,7.18
		c-2,4.418-3.937,8.668-5.699,12.594c-4.668-3.386-10.39-5.347-16.566-5.347c-15.886,0-28.839,13.027-28.839,28.914
		c0,13.398,9.183,24.691,21.675,27.855l-0.117,0.274l-0.359,0.813c-0.68,1.43-1.278,2.714-1.817,3.847l-0.07,0.157
		c-0.867,1.961-1.754,3.882-2.59,5.71l-2.266,4.954l3.992,3.703c0.985,0.91,1.957,1.695,2.934,2.542
		c0.375,0.329,0.75,0.657,1.125,0.977c2.375,1.996,4.734,3.859,7.086,5.465c0.074,0.051,0.144,0.122,0.222,0.172
		c0.457,0.317,0.926,0.543,1.383,0.844c1.465,0.942,2.922,1.871,4.39,2.664c0.058,0.031,0.114,0.078,0.176,0.11h0.05
		c0.254,0.133,0.508,0.23,0.766,0.363c1.164,0.606,2.336,1.164,3.516,1.672c0.347,0.152,0.691,0.351,1.039,0.496l1.843,0.75
		l0.219-0.031c1.113,0.375,2.226,0.746,3.336,1.039c3.762,1.054,7.605,1.508,11.668,1.508c5.347,0,10.996-0.828,16.867-2.485
		c7.601-2.11,15.359-5.422,23.113-9.262c0.762-0.348,1.504-0.734,2.246-1.106l-0.02,0.293l12.098-6.48
		c3.008-1.614,6.07-3.356,9.09-5.043c4.726-2.629,9.484-5.258,14.258-7.879c0.984-0.538,2-1.109,2.969-1.633l0.114-0.066
		c0.066-0.038,0.129-0.066,0.195-0.105c2.664-1.5,5.484-2.942,8.418-4.258c0.199-0.086,0.402-0.191,0.598-0.277
		c2.867-1.262,5.867-2.348,8.938-3.27c0.274-0.078,0.558-0.184,0.828-0.258l0.043-0.012c2.203-0.618,4.375-1.062,6.512-1.363
		c2.14-0.297,4.32-0.469,6.523-0.469c3.015,0,6.023,0.301,9.035,1.054c1.797,0.394,3.531,0.961,5.21,1.641
		c1.61,0.664,3.196,1.453,4.734,2.359c0.039,0.023,0.09,0.039,0.133,0.066c3.223,1.91,6.246,4.336,8.883,7.164
		c0.402,0.438,0.774,0.93,1.168,1.387c0.703,0.82,1.418,1.637,2.05,2.48c0.325,0.426,0.626,0.898,0.938,1.34
		c0.672,0.946,1.34,1.89,1.942,2.855c0.383,0.614,0.746,1.286,1.114,1.926c0.472,0.82,0.961,1.637,1.394,2.465
		c0.781,1.507,1.535,3.078,2.266,4.754h0.004l0.004,0.004l-0.008,0.004c0.187,0.43,0.324,0.89,0.508,1.328
		c1.035,2.512,2.011,5.031,2.839,7.566c0.282,0.863,0.493,1.778,0.754,2.652c0.633,2.118,1.266,4.234,1.77,6.367
		c0.41,1.754,0.726,3.594,1.07,5.41c0.246,1.328,0.55,2.645,0.758,3.977c0.285,1.824,0.469,3.762,0.687,5.656
		c0.153,1.394,0.367,2.778,0.485,4.18c0.035,0.414-0.012,0.808-0.126,1.179c0,0,0,0,0,0.004c-0.109,0.34-0.289,0.649-0.503,0.922
		c-0.024,0.027-0.035,0.062-0.055,0.09c-0.187,0.226-0.43,0.402-0.679,0.562c-0.07,0.043-0.122,0.11-0.192,0.149
		c-0.038,0.019-0.082,0.019-0.117,0.034c-0.286,0.13-0.582,0.227-0.89,0.246l-0.137,0.008l-0.262,0.035
		c-0.661-0.008-1.282-0.242-1.782-0.657C491.672,332.207,491.293,331.594,491.121,330.797z M407.699,365.188
		c0.84,0.21,1.684,0.492,2.519,0.754c0.719,0.226,1.462,0.434,2.149,0.687c1.508,0.562,3.012,1.199,4.504,1.969
		c0.714,0.352,1.382,0.871,2.078,1.297c0.898,0.551,1.824,1.02,2.671,1.68c0.164,0.125,0.297,0.293,0.462,0.422
		c2.847,2.313,5.363,5.141,7.136,8.118c0.149,0.246,0.219,0.515,0.356,0.766c0.734,1.332,1.41,2.672,1.824,3.992l0.023,0.066
		l0.039,0.118c0.746,2.094,1.23,4.164,1.551,6.183c0.035,0.25,0.05,0.496,0.086,0.746c0.23,1.718,0.352,3.39,0.367,5
		c0.004,0.507,0.004,1.015-0.012,1.519c-0.015,0.824-0.038,1.637-0.094,2.41c-0.098,1.27-0.21,2.535-0.375,3.75
		c-0.902,6.102-2.558,11.746-4.519,17.168c-0.992,2.626-2.066,5.188-3.203,7.707c-0.375,0.824-0.809,1.656-1.199,2.481
		c-0.793,1.656-1.574,3.316-2.426,4.934c-0.645,1.242-1.383,2.507-2.086,3.766c-0.699,1.25-1.374,2.515-2.105,3.75
		c-0.45,0.758-0.973,1.547-1.438,2.313c-1.051,1.703-2.094,3.41-3.199,5.094c-0.363,0.547-0.848,0.957-1.383,1.25
		c-0.578,0.313-1.226,0.489-1.855,0.481c-0.754,0-1.508-0.226-2.184-0.676c-0.117-0.074-0.179-0.187-0.289-0.273
		c-0.328-0.274-0.625-0.566-0.836-0.914c-0.102-0.168-0.168-0.348-0.242-0.523c-0.16-0.394-0.273-0.809-0.308-1.266
		c-0.004-0.126-0.031-0.246-0.027-0.367l0.414-1.766l0.008-0.012c4.594-9.414,8.355-19.578,10.844-29.516
		c0.609-2.558,1.098-5.117,1.457-7.636c0.195-1.298,0.23-2.516,0.34-3.766c0.098-1.145,0.273-2.317,0.308-3.43
		c0-0.05-0.004-0.098-0.004-0.148v-0.004l0.004-0.726c-0.007-0.496-0.042-0.965-0.058-1.446c-0.019-0.469-0.023-0.942-0.054-1.402
		c-0.145-2.125-0.461-4.141-1.078-6.102c-0.031-0.106-0.078-0.187-0.11-0.293c-0.266-0.789-0.546-1.574-0.922-2.355l-0.074-0.149
		l-0.007-0.008c-0.262-0.496-0.661-1.152-1.165-1.847c-0.343-0.473-0.738-0.883-1.136-1.29c-0.176-0.183-0.286-0.366-0.481-0.546
		c-0.027-0.027-0.062-0.039-0.09-0.062c-1.242-1.11-2.719-1.973-4.462-2.672c-1.558-0.57-3.316-1-5.202-1.293
		c-1.875-0.293-3.821-0.426-5.867-0.438c-0.329-0.004-1.063,0.015-1.867,0.086l-1.63,0.07l-0.098,0.004l-0.336,0.019
		c-0.347,0.024-0.675,0.024-1.034,0.047l-4.145,0.301l-8.43,0.45c-4.969,0.304-9.942,0.378-14.985,0.378h-1.957
		c-1.539-0.011-3.121-0.106-4.672-0.137c-6.886-0.152-14.004-0.496-21.418-1.312c-0.363-0.039-0.715-0.051-1.07-0.094l-0.477-0.054
		c-0.074-1.648-0.301-3.301-0.598-4.953c-1.285-10.242-7.23-18.898-11.973-24.321c-0.828-0.953-1.703-1.89-2.55-2.801l8.289,2.68
		c5.355,1.789,10.91,3.274,16.602,4.531c1.278,0.289,2.57,0.55,3.871,0.817c4.898,0.98,9.844,1.843,14.867,2.507
		c0.23,0.027,0.434,0.082,0.664,0.11c4.625,0.586,9.531,1.102,14.886,1.484c0.274,0.024,0.543,0.063,0.817,0.086l7.91,0.523
		l3.988,0.226c1.508,0.078,3.086,0.078,4.594,0.227c0.973,0.082,1.969,0.218,2.957,0.339c0.692,0.086,1.422,0.157,2.082,0.262
		c0.813,0.125,1.629,0.312,2.446,0.472C405.965,364.805,406.867,364.977,407.699,365.188z M117.215,382.844
		c-0.047-0.004-0.094-0.004-0.141-0.008c-0.68-0.05-1.278-0.074-1.786-0.074c-0.038,0-0.078-0.007-0.117-0.007h-0.074h-0.019
		l-0.926-0.059l-0.234-0.015h-0.25c-2.078,0.011-4.035,0.156-5.902,0.442c-0.367,0.058-0.664,0.183-1.019,0.25
		c-1.356,0.258-2.707,0.52-3.969,0.977l-0.153,0.054l-0.004,0.004c-0.007,0-0.015,0.004-0.023,0.004
		c-0.301,0.121-0.554,0.278-0.84,0.406c-0.507,0.23-1.019,0.442-1.519,0.734c-0.762,0.445-1.454,0.953-2.086,1.515
		c-0.034,0.027-0.07,0.047-0.105,0.074c-0.219,0.199-0.348,0.41-0.543,0.618c-0.367,0.382-0.738,0.766-1.062,1.202
		c-0.512,0.703-0.914,1.367-1.176,1.867l-0.058,0.118c-1.406,2.894-1.95,5.805-2.153,8.969c-0.007,0.098-0.004,0.195-0.011,0.293
		c-0.043,0.778-0.082,1.558-0.094,2.379l0.015,0.949h0.008c0,0.066,0.011,0.137,0.015,0.203c0.062,2.488,0.348,5.074,0.766,7.722
		c0.344,2.262,0.77,4.543,1.317,6.832c2.484,9.938,6.25,20.102,10.84,29.516l0.074,0.141l0.391,1.652
		c0.004,0.129-0.043,0.25-0.051,0.379l-0.168,0.977L106.149,451c-0.165,0.477-0.414,0.906-0.746,1.286
		c-0.328,0.374-0.734,0.691-1.211,0.934l-1.742,0.386c-0.946,0.016-1.848-0.473-2.57-1.114c-0.227-0.21-0.508-0.347-0.668-0.617
		c-1.211-1.84-2.36-3.707-3.5-5.574c-0.36-0.586-0.762-1.199-1.11-1.785c-0.77-1.297-1.484-2.625-2.218-3.946
		c-0.672-1.211-1.387-2.43-2.012-3.625c-0.672-1.289-1.286-2.618-1.922-3.926c-0.59-1.215-1.219-2.43-1.762-3.641
		c-0.91-2.027-1.754-4.098-2.57-6.188c-0.184-0.468-0.399-0.926-0.578-1.398c-1.95-5.406-3.606-11.042-4.504-17.129
		c-0.184-1.305-0.309-2.652-0.402-4.015c-0.035-0.531-0.047-1.094-0.07-1.649c-0.027-0.789-0.027-1.586-0.012-2.39
		c0.024-1.262,0.134-2.574,0.286-3.902c0.066-0.578,0.11-1.145,0.203-1.726c0.297-1.797,0.73-3.625,1.359-5.461
		c0.051-0.145,0.066-0.286,0.118-0.43l0.019-0.051c0.238-0.75,0.687-1.5,1.027-2.254c0.398-0.887,0.719-1.794,1.222-2.641
		c1.547-2.594,3.668-4.981,5.993-7.078c0.562-0.5,1.07-1.074,1.656-1.531c0.164-0.125,0.34-0.191,0.5-0.316
		c1.359-0.996,2.762-1.91,4.215-2.622c1.461-0.754,2.941-1.374,4.418-1.93c0.836-0.312,1.722-0.57,2.598-0.836
		c0.676-0.203,1.344-0.434,2.016-0.602c1.144-0.293,2.343-0.535,3.57-0.762c0.402-0.07,0.808-0.168,1.21-0.23
		c1.653-0.266,3.379-0.48,5.226-0.629l0.153-0.016l0.207-0.023c0.507-0.066,1.023-0.07,1.535-0.098
		c0.98-0.043,1.968-0.098,2.934-0.145l3.988-0.226l7.906-0.523c0.43-0.031,0.859-0.098,1.289-0.129
		c5.195-0.383,9.95-0.875,14.418-1.442c0.25-0.031,0.468-0.086,0.714-0.121c4.961-0.657,9.863-1.512,14.711-2.481
		c1.336-0.27,2.664-0.543,3.969-0.836c6.113-1.351,12.058-2.984,17.781-4.942l7.157-2.324c-0.918,0.934-1.798,1.867-2.668,2.934
		c-4.664,5.348-10.614,14.004-11.969,24.621c-0.301,1.504-0.454,3.004-0.528,4.578l-0.488,0.058c-0.285,0.031-0.558,0.039-0.84,0.07
		c-9.137,1.016-18,1.394-26.312,1.469h-1.95c-5.046,0-10.015-0.074-14.988-0.378l-8.43-0.45l-4.141-0.301
		c-0.27-0.015-0.512-0.015-0.778-0.035l-0.644-0.031V382.844z M116.91,161.891c-0.852-0.825-1.657-1.731-2.527-2.504
		c-0.649-0.582-1.27-1.051-1.899-1.574c-0.57-0.477-1.133-0.965-1.71-1.418c-0.203-0.152-0.402-0.277-0.602-0.426
		c-0.973-0.738-1.95-1.469-2.981-2.106c-0.863-0.55-1.785-1.054-2.703-1.515c-0.258-0.129-0.538-0.29-0.773-0.394l-0.305-0.126
		c-0.082-0.038-0.168-0.07-0.25-0.105l-0.774-0.325l-0.625-0.206l-0.465-0.126l-0.449-0.098c-0.219-0.027-0.485-0.078-1.09-0.102
		c-0.031,0-0.066-0.015-0.098-0.015h-0.148h-0.149c-0.66-0.024-1.141-0.282-1.382-0.527c-0.344-0.34-0.566-0.801-0.57-1.34
		c0.031-0.95,0.738-1.711,1.574-1.813l0.082-0.008l0.086-0.015l0.161-0.012l1.554-0.125c0.023,0,0.043,0.004,0.062,0.004
		c1.387,0.011,2.598,0.218,3.817,0.55c0.058,0.02,0.121,0.027,0.179,0.043c1.184,0.34,2.398,0.805,3.782,1.332l0.668,0.309
		l0.175,0.082l0.016,0.004c2.695,1.16,5.442,2.649,8.867,4.883l-0.023-0.016c0.945,0.625,1.855,1.418,2.785,2.094
		c4.394,3.25,8.566,6.848,12.348,10.817c6.855,7.25,12.656,15.633,17.007,24.801c0.024,0.046,0.051,0.094,0.074,0.141
		c1.45,3.074,2.742,6.234,3.852,9.469c0.988,2.906,1.777,5.882,2.469,8.882c0.214,0.942,0.394,1.89,0.578,2.84
		c0.426,2.141,0.762,4.301,1.035,6.469c0.129,1.027,0.278,2.043,0.375,3.074c0.274,2.937,0.434,5.882,0.434,8.835
		c-0.004,3.637-0.211,7.282-0.625,10.902c-0.293,2.566-0.746,4.95-1.176,7.356c-0.785,4.301-1.726,8.562-3.047,12.699l-0.015,0.042
		l-0.516,1.676l-0.266,0.848l-0.445,1.93l-0.254,0.906c-0.054,0.195-0.106,0.39-0.16,0.582l-0.031,0.106l-0.012,0.058
		c-0.082,0.278-0.121,0.555-0.187,0.832l-0.164,0.727l-0.074,0.343l-0.359,2.633l-0.195,1.367c0,0.016,0,0.031,0,0.047l-0.035,0.266
		l0.062,0.988c0.019,0.758,0.047,1.527,0.047,2.238v0.098l0.023,0.274c0.098,1.531,0.449,3.074,0.918,4.594
		c0.469,1.543,1.066,3.02,1.895,4.383c0.074,0.121,0.171,0.23,0.25,0.351c0.461,0.726,0.942,1.446,1.512,2.121
		c1.336,1.68,3.023,3.242,4.969,4.672c0.058,0.043,0.125,0.078,0.183,0.122c1.742,1.262,3.684,2.41,5.77,3.445
		c0.125,0.062,0.222,0.145,0.348,0.207c0.094,0.043,0.21,0.066,0.301,0.11c0.434,0.187,0.867,0.371,1.304,0.554
		c-2.789-0.301-5.648-0.898-8.586-1.73c-9.262-2.558-18.824-7.152-28.008-11.894c-0.371-2.289-0.511-4.578-0.445-6.797
		c0-0.074-0.004-0.125-0.004-0.199c0.066-1.852,0.16-3.695,0.343-5.489c0.016-0.105,0.02-0.246,0.031-0.343l0.039-0.266l0.887-4.524
		l0.187-0.93c0.262-1.187,0.66-2.363,1.133-3.762c-0.008-0.011,0.262-0.699,0.562-1.625l0,0l0.981-2.789l0.011-0.047l0.29-0.836
		l0.426-1.082c1.18-2.871,2.121-5.79,2.946-8.719c0.394-1.367,0.644-2.546,0.965-3.832c0.347-1.414,0.738-2.824,1.062-4.238
		c0.21-1.042,0.297-2.109,0.469-3.16c0.27-1.66,0.578-3.309,0.742-4.981c0.184-1.824,0.215-3.66,0.274-5.496
		c0.027-0.859,0.129-1.714,0.129-2.574c0-0.082-0.015-0.165-0.015-0.25c-0.016-6.114-0.668-12.242-2.051-18.25
		c-0.328-1.426-0.812-2.817-1.218-4.227c-2.782-9.785-7.446-19.367-13.867-28.152l-0.027-0.043
		c-1.027-1.378-2.141-2.617-3.219-3.918C121.394,166.465,119.23,164.114,116.91,161.891z M212.656,270.191L212.656,270.191
		L212.656,270.191L212.656,270.191z M166.934,275.527l0.309-2.293l0.199-0.898l0.457-1.625l0.062-0.226l0.34-1.5l0.594-1.91
		l-0.008-0.004c1.157-3.488,2.126-7.183,2.93-11.043c4.934,10.962,15.117,18.958,27.382,20.934c0.598,1.262,1.152,2.434,1.691,3.586
		c0.074,0.168,0.137,0.289,0.207,0.453c-4.48,3.715-8.629,6.301-12.406,7.973c-5.797-0.926-10.734-2.355-14.41-4.117
		c-2.958-1.402-5.145-3.18-6.043-4.336l-0.043-0.051l-0.094-0.113c-0.746-0.958-0.95-1.371-1.133-2.86v-1.129v-0.285
		L166.934,275.527z M183.618,241.203c0-1.699,0.258-3.355,0.636-4.961c0.074-0.297,0.157-0.59,0.238-0.879
		c0.402-1.414,0.938-2.77,1.59-4.054c0.094-0.176,0.156-0.371,0.254-0.543c0.668-1.226,1.453-2.324,2.398-3.418
		c0.828-1.051,1.809-1.957,2.859-2.786c3.691-2.938,8.359-4.742,13.406-4.742c11.746,0,21.309,9.562,21.309,21.382
		c0,10.39-7.379,18.977-17.172,20.855c-1.278,0.305-2.633,0.454-3.988,0.454c-0.078,0-0.078,0-0.149,0
		c-1.434,0-2.789-0.149-4.145-0.454c-0.941-0.179-1.839-0.472-2.73-0.769c-0.363-0.126-0.738-0.219-1.098-0.36
		c-0.637-0.254-1.226-0.578-1.828-0.882c-0.621-0.324-1.246-0.645-1.824-1.027c-0.402-0.258-0.778-0.543-1.157-0.825
		c-0.718-0.538-1.414-1.113-2.058-1.738c-0.25-0.238-0.492-0.481-0.726-0.734c-0.687-0.731-1.32-1.512-1.898-2.329
		c-0.172-0.246-0.351-0.484-0.516-0.734c-0.546-0.847-1.015-1.754-1.437-2.675c-0.133-0.297-0.29-0.574-0.41-0.875
		c-0.367-0.906-0.629-1.855-0.871-2.817c-0.09-0.355-0.218-0.695-0.289-1.062c-0.23-1.199-0.348-2.438-0.367-3.695
		C183.641,241.422,183.618,241.317,183.618,241.203z M403.168,148.992c1.446-0.554,2.687-1.031,3.914-1.378
		c0.062-0.016,0.129-0.027,0.195-0.047c1.214-0.332,2.422-0.539,3.808-0.55c0.024,0,0.043-0.004,0.063-0.004l1.449,0.117l0.266,0.02
		l0.11,0.019l0.086,0.012c0.195,0.031,0.317,0.191,0.485,0.281l0.714,0.446c0.266,0.352,0.402,0.793,0.344,1.254l-0.004,0.063
		c-0.035,0.206-0.18,0.335-0.266,0.511c-0.301,0.594-0.882,1.141-1.574,1.118h-0.027h-0.375c-0.094,0-0.206,0.039-0.305,0.046
		c-0.437,0.035-0.769,0.086-1.031,0.137c-0.031,0.008-0.05,0.016-0.082,0.023c-0.328,0.074-0.668,0.176-1.016,0.294
		c-0.277,0.086-0.59,0.191-0.851,0.297c-0.226,0.086-0.442,0.176-0.672,0.277c-0.121,0.055-0.226,0.09-0.355,0.149
		c-0.094,0.043-0.223,0.137-0.325,0.184c-0.98,0.48-1.965,1.015-2.894,1.605c-0.359,0.223-0.687,0.504-1.042,0.738
		c-0.856,0.578-1.711,1.157-2.626,1.859c-0.406,0.317-0.801,0.668-1.199,1c-0.785,0.637-1.554,1.242-2.378,1.985v-0.004
		c-0.008,0.008-0.016,0.012-0.02,0.019c-0.015,0.016-0.031,0.024-0.042,0.035l0.003,0.004c-0.824,0.73-1.59,1.59-2.39,2.363
		c-3.562,3.41-6.878,7.086-9.805,11.051c-1.816,2.484-3.504,5.054-5.066,7.691c-0.168,0.286-0.293,0.578-0.457,0.859
		c-1.336,2.309-2.602,4.645-3.722,7.047c-0.817,1.742-1.469,3.519-2.157,5.293c-0.394,1.012-0.867,1.992-1.218,3.016
		c-0.207,0.598-0.328,1.206-0.519,1.808c-0.711,2.203-1.406,4.414-1.918,6.661c-0.691,3.007-1.191,6.05-1.543,9.105
		c-0.031,0.313-0.027,0.63-0.058,0.942c-0.274,2.68-0.449,5.363-0.457,8.047c0,0.133-0.023,0.262-0.023,0.394
		c0,1.285,0.133,2.562,0.195,3.847c0.066,1.383,0.07,2.766,0.206,4.141c0.09,0.887,0.274,1.754,0.391,2.633
		c0.246,1.871,0.457,3.75,0.836,5.602c1.281,5.645,2.714,11.293,4.969,16.79l0.355,0.894l0.453,1.234l0.954,2.793l0.015,0.039
		l0.492,1.418c0.477,1.406,0.871,2.59,1.137,3.786l1.074,5.449l0.031,0.246c0.02,0.129,0.027,0.293,0.039,0.43
		c0.18,1.742,0.27,3.527,0.332,5.324l0.008,0.176c0.078,2.324-0.074,4.652-0.45,6.973c-9.183,4.668-18.746,9.262-28.007,11.746
		c-2.883,0.813-5.688,1.394-8.422,1.774v-0.031c0.473-0.199,0.973-0.382,1.43-0.598c0.098-0.05,0.176-0.117,0.274-0.164
		c2.172-1.07,4.195-2.266,5.992-3.582c0.012-0.007,0.024-0.015,0.031-0.023c1.954-1.43,3.645-2.996,4.989-4.68
		c0.546-0.652,1.011-1.347,1.457-2.046c0.11-0.168,0.246-0.317,0.348-0.488c0.808-1.344,1.39-2.805,1.847-4.325
		c0.168-0.542,0.363-1.074,0.485-1.621c0.023-0.118,0.027-0.246,0.054-0.367c0.172-0.867,0.32-1.738,0.379-2.602l0.019-0.282v-0.062
		c0-0.008,0.004-0.019,0.004-0.027c0-0.75,0.027-1.558,0.05-2.355l0.004-0.09l0.047-0.73l-0.031-0.222
		c0-0.05,0.004-0.094,0.004-0.141l-0.188-1.316l-0.328-2.574l-0.07-0.523l-0.285-1.078c-0.153-0.566-0.317-1.129-0.465-1.695
		l-0.082-0.305l-0.347-1.547l-0.074-0.324l-0.754-2.426l-0.055-0.156c-0.031-0.102-0.054-0.23-0.086-0.332
		c-1-3.157-1.844-6.371-2.527-9.63c-0.672-3.281-1.23-6.71-1.641-10.281l-0.004-0.02c-0.422-3.546-0.61-7.125-0.621-10.714
		c-0.004-3.039,0.16-6.074,0.441-9.098c0.082-0.863,0.211-1.715,0.313-2.574c0.293-2.367,0.664-4.718,1.133-7.05
		c0.16-0.813,0.313-1.63,0.5-2.434c0.691-3.055,1.5-6.078,2.504-9.031c4.445-12.95,11.746-24.696,20.934-34.41
		c4.121-4.324,8.668-8.266,13.515-11.711c0.566-0.398,1.106-0.882,1.68-1.262c1.66-1.07,3.176-1.984,4.652-2.789
		c0.012-0.012,0.031-0.02,0.051-0.027c1.446-0.79,2.847-1.485,4.309-2.137L403.168,148.992z M344.785,273.153l0.298,2.308
		l-0.024,0.414l-0.015,0.222v1.398c-0.18,1.496-0.418,1.958-1.07,2.797l-0.102,0.118l-0.008,0.015
		c-1.015,1.278-3.172,3.024-6.141,4.434c-3.687,1.766-8.672,3.242-14.484,4.18c-3.786-1.762-7.867-4.367-12.313-8.047
		c0.102-0.226,0.188-0.41,0.29-0.636c0.465-1,1.015-2.157,1.602-3.402c12.273-1.989,22.465-9.969,27.394-20.938
		c0.808,3.91,1.801,7.679,2.992,11.281h-0.008l0.59,1.91l0.313,1.367l0.031,0.16l0.5,1.817l-0.015-0.047L344.785,273.153z
		 M328,245.242c-0.07,0.359-0.195,0.687-0.282,1.039c-0.238,0.957-0.496,1.898-0.859,2.801c-0.137,0.336-0.312,0.652-0.461,0.98
		c-0.406,0.875-0.844,1.727-1.355,2.531c-0.195,0.301-0.406,0.586-0.614,0.875c-0.546,0.766-1.137,1.496-1.774,2.184
		c-0.266,0.285-0.542,0.562-0.828,0.836c-0.617,0.598-1.285,1.148-1.973,1.668c-0.39,0.293-0.777,0.586-1.187,0.847
		c-0.598,0.39-1.234,0.722-1.871,1.051c-0.574,0.293-1.137,0.598-1.738,0.839c-0.434,0.176-0.89,0.294-1.336,0.442
		c-0.843,0.274-1.679,0.555-2.562,0.722c-1.281,0.305-2.71,0.454-4.141,0.454h-0.226c-1.355,0-2.707-0.149-3.992-0.454
		c-9.711-1.878-17.09-10.465-17.09-20.855c0-11.82,9.562-21.382,21.308-21.382c5.122,0,9.711,1.804,13.402,4.742
		c1.051,0.829,2.035,1.734,2.863,2.786c0.938,1.09,1.723,2.183,2.387,3.402c0.113,0.195,0.176,0.414,0.285,0.613
		c0.637,1.258,1.161,2.586,1.559,3.969c0.086,0.313,0.171,0.622,0.25,0.938c0.379,1.598,0.637,3.242,0.637,4.934
		C328.402,242.586,328.254,243.934,328,245.242z"/>
	<path class="st0" d="M248.141,297.898c3.086,1.43,5.722,3.692,7.906,6.398c2.109-2.706,4.746-4.969,7.828-6.398
		c-2.707-2.183-5.344-4.289-7.828-6.55C253.488,293.61,250.851,295.715,248.141,297.898z"/>
	<path class="st0" d="M199.504,250.391c1.43,0.828,3.082,1.351,4.816,1.43c0.227,0.074,0.45,0.074,0.68,0.074
		c5.871,0,10.691-4.816,10.691-10.691c0-5.871-4.82-10.691-10.691-10.691c0.45,0.828,0.754,1.734,0.754,2.711
		c0,2.937-2.414,5.343-5.351,5.343c-0.977,0-1.883-0.301-2.711-0.75c-0.824-0.454-1.5-1.129-1.878-1.958
		c-0.754,1.13-1.203,2.406-1.356,3.766c-0.078,0.524-0.148,1.051-0.148,1.578C194.309,245.118,196.414,248.508,199.504,250.391z"/>
	<path class="st0" d="M315.676,234.954c-1.954-2.707-5.043-4.442-8.578-4.442c0.45,0.828,0.754,1.734,0.754,2.711
		c0,2.937-2.414,5.343-5.351,5.343c-2.031,0-3.766-1.129-4.664-2.707c-0.981,1.578-1.508,3.387-1.508,5.344
		c0,5.875,4.821,10.691,10.691,10.691c0.227,0,0.379,0,0.602-0.074c1.809-0.078,3.465-0.602,4.895-1.43
		c3.09-1.883,5.195-5.274,5.195-9.188c0-0.527-0.074-1.054-0.153-1.578C317.336,237.891,316.66,236.313,315.676,234.954z"/>
</g>
</svg>
